<?xml version="1.0" encoding="UTF-8"?>
<svg id="Layer_1" xmlns="http://www.w3.org/2000/svg" version="1.1" viewBox="0 0 104.62 114.18">
  <!-- Generator: Adobe Illustrator 29.4.0, SVG Export Plug-In . SVG Version: 2.1.0 Build 152)  -->
  <defs>
    <style>
      .st0 {
        fill: #fff;
      }
    </style>
  </defs>
  <path class="st0" d="M99.79,29.84c-.3-.35-.64-.66-.97-.98-.03-.22-.07-.44-.08-.66-.01-.46,0-.92,0-1.38-.01-1.17-.31-1.42-1.67-1.5-.67-.04-1.33-.08-1.9-.11-.42-.41-.74-.74-1.15-1.15-1.93-.19-3.94-.2-5.78,0-.49.48-.81.81-1.2,1.2h-2.65c-.53.48-1.03.93-1.58,1.42h-1.27c-.53.48-1.03.94-1.51,1.39h-9.63c-.53-.49-1.03-.94-1.51-1.37-.5.04-.95.08-1.39.11-.16.16-.32.34-.49.49-1.27,1.1-1.52,1.11-2.85.11-1.37-1.03-1.5-1.08-2.83.08-.59.51-1.16.61-1.92.59-.45-.41-.96-.85-1.51-1.35h-2.64c-.53-.49-1.03-.95-1.54-1.42h-4.08c-.53-.49-1.03-.94-1.56-1.42h-2.67c-.87-.87-1.68-1.68-2.5-2.5-1.13-.13-2.2-.38-2.84-1.46-.22-.05-.43-.11-.64-.13-.23-.02-.46-.02-.69,0-2.02.14-1.93.02-2.42-2.22-1.79-1.79-3.59-3.58-5.38-5.38v-2.45c-2.26-2.26-4.37-4.36-6.6-6.6h-2.46c-.38-.38-.67-.77-1.04-1.02-.87-.58-1.67-.41-2.36.37v1.79c-.85.67-1.93,1.51-2.7,2.11v3.1c.89.89,1.7,1.7,2.52,2.52,0,1.2.46,2.16,1.46,2.84.19,1.73.2,1.71,1.74,2.18.4.12.74.44,1.11.67v3.17c.85.67,1.93,1.51,2.85,2.23v8.45c.4.63,1.16.83,1.09,1.6-.33.33-.65.65-.99.99-.33,1.34-.13,2.71-.17,4.06-.03,1.15.04,2.3-.02,3.45-.06,1.34.28,2.71-.27,4-.34.34-.67.67-1.05,1.05v5.43c-.48.52-.94,1.02-1.42,1.55v5.45c-.47.51-.94,1.01-1.42,1.54v1.25c-.46.53-.88,1.01-1.25,1.44.44.54.81,1,1.18,1.45-.28.28-.44.45-.61.6-.98.92-.58,2.64-1.94,3.36-.12.06-.14.42-.11.62.17,1.13-.84,1.51-1.38,2.23v2.75c-1.13,1.13-2.21,2.34-3.43,3.38-.8.68-.61,1.61-.64,1.66-1.04,1.29-1.61,2-2.11,2.63h-2.84c-.8.49-.68,1.2-.69,1.93-.43.47-.88.97-1.37,1.5v1.3c-.46.51-.91.99-1.35,1.47.45.69,1.13.68,2.22.64.68.86,1.52,1.94,2.19,2.79h3.13c.52.48,1.02.94,1.44,1.33h4.14c.53-.32.76-.7.67-1.18-.09-.52-.03-1.02.4-1.2.58-.25,1.34-.2,1.84-.55.72-.5,1.21-1.22,2.29-1.24.54-.01,1.07-.71,1.9-1.32,2.86,0,6.07,0,9.28.01.19,0,.37.21.55.32.33.33.65.65,1.01,1.01.48-.44.97-.88,1.46-1.34h6.86c.51.48,1.01.94,1.53,1.42h5.4c.55.47,1.03.87,1.35,1.14.78-.18.86-1.12,1.69-.93.32.32.65.65,1.05,1.05h4.35c.73.92,1.57,2,2.23,2.84,1.34,0,2.26,0,3.53.35.82.84,1.28,1.33,1.73,1.79.03.71-.15,1.44.71,1.96,1,0,2.19-.03,2.06,1.66-.03.46.21.83.65,1.11.49.32.65.65.49.98-.33.33-.65.65-1.06,1.06.39.46.79.94,1.23,1.45.02.39.05.84.08,1.33-.45.48-.91.97-1.36,1.46.45.49.92.98,1.35,1.45.04.71-.15,1.44.69,1.95h2.6c.53.48,1.03.93,1.57,1.42h1.29c.52.48,1.02.94,1.5,1.38h4.14c.67-.67,1.32-1.32,2.02-2.01v-4.07c.48-.52.95-1.01,1.4-1.5-.45-.48-.92-.98-1.4-1.5v-4.02c-.51-.58-.95-1.08-1.42-1.62v-4c-1.8-1.96-1.8-2.05,0-4v-2.61c.47-.54.91-1.05,1.39-1.6-.41-.45-.85-.93-1.31-1.44v-2.69c-.46-.5-.9-.98-1.33-1.46.3-.49.7-.59,1.15-.67,1.52-.28,1.53-.31,1.57-1.59.02-.67.06-1.34.08-1.87.39-.64,1.17-.82,1.06-1.6-.33-.33-.65-.65-.98-.98-.06-.44-.11-.87-.18-1.4.4-.46.84-.97,1.32-1.51-.41-.45-.85-.93-1.31-1.44v-1.35c.36-.23.71-.62,1.09-.66.68-.06,1.27-.12,1.58-.77-.41-.48-.81-.95-1.21-1.42.89-.89,1.71-1.71,2.6-2.6-.39-.46-.79-.94-1.23-1.45.86-.92,1.76-1.88,2.62-2.8-.43-.51-.83-.99-1.19-1.4.5-.61.92-1.12,1.25-1.53.06-1.49-.32-2.97,1.31-3.84v-4.04c.47-.54.92-1.05,1.42-1.63v-4.01c.48-.52.95-1.01,1.42-1.52v-1.77c.85-.66,1.92-1.51,2.85-2.23v-2.97c.9-.89,1.71-1.71,2.52-2.52-.05-.16-.07-.36-.17-.48ZM81.84,38.73c-.28.36-.64.66-1.03,1.05v5.41c-.48.53-.93,1.03-1.42,1.58v4.03c-.49.53-.95,1.03-1.42,1.54v5.46c-.48.53-.94,1.03-1.37,1.49-.04.51-.07.95-.11,1.4-.33.33-.65.65-1.07,1.07-.12.99-.25,2.07-.37,3.14-.35.35-.67.67-1.01,1.01-.41,1.32-.12,2.69-.22,4.04-.08,1.12.25,2.26-.22,3.31-.36.36-.69.69-1.09,1.09v8.15c-.47.54-.92,1.04-1.39,1.58.41.45.86.94,1.3,1.42-.64.64-1.29,1.29-1.99,1.99-.48-.42-.95-.84-1.48-1.3h-1.29c-1-.95-1.99-1.89-2.91-2.77-.55-.05-.99-.09-1.44-.14-.33-.33-.65-.65-.98-.98-.42-.09-.84-.25-1.27-.27-.92-.04-1.85.05-2.76-.04-.39-.04-.73-.43-1.45-1.01-3.11-.35-5.88-.35-8.62-.35-.51-.47-1-.94-1.45-1.35h-9.69c-.36.36-.68.68-1.01,1.01-1.52.65-3.08.35-4.49.21-.64-.47-1.12-1.05-1.72-1.2-.65-.16-1.32-.13-1.74-.77v-1.33c.48-.52.94-1.02,1.38-1.49.01-.72-.09-1.4.57-1.9.34-.26.54-.68.81-1.03.06-1.36-.15-2.72.17-4.07.33-.33.65-.65,1.13-1.12.03-.74.07-1.63.12-2.71.31-.38.73-.89,1.27-1.53v-2.53c.48-.54.92-1.04,1.42-1.62v-4.02c.48-.51.95-1.01,1.42-1.52v-12.38c.46-.5.9-.98,1.32-1.44-.47-.54-.92-1.04-1.24-1.41v-2.8c.4-.4.73-.73,1.14-1.13.11-1,.23-2.09.34-3.12,1.05-.96,2.24-.3,3.29-.48.51.47,1.01.93,1.54,1.41h2.6c.6.52,1.11.95,1.55,1.33h3.76c.91.63,1.45,1.31,1.99,1.32,1.08.02,1.61.68,2.32,1.37h13.71c.53.47,1.04.91,1.61,1.42h2.72c.43-.41.93-.87,1.44-1.34,2.05,0,4.13.03,6.2-.02.53-.01.9.04,1.19.5.29.46.3,1.36-.09,1.87Z"/>
</svg>