<?xml version="1.0" encoding="UTF-8"?>
<svg id="Layer_1" xmlns="http://www.w3.org/2000/svg" version="1.1" viewBox="0 0 104.62 114.18">
  <!-- Generator: Adobe Illustrator 29.4.0, SVG Export Plug-In . SVG Version: 2.1.0 Build 152)  -->
  <defs>
    <style>
      .st0 {
        fill: #fff;
      }
    </style>
  </defs>
  <path class="st0" d="M59.21,100.61v1.31c.49.52.95,1.02,1.43,1.53v1.31c.49.53.94,1.03,1.35,1.48.24,1.14-.48,2.38.67,3.34h5.44c.52.48,1.02.94,1.55,1.43,1.1-1.13,2.22-2.28,3.41-3.5v-4.05c-.43-.47-.9-.97-1.34-1.46v-1.34c.49-.53.94-1.03,1.38-1.5-.04-.5-.08-.95-.11-1.39-.82-.77-1.8-1.49-1.08-2.85.81-.81,1.63-1.62,2.5-2.5-.41-.47-.83-.95-1.25-1.44.9-.95,1.83-1.93,2.77-2.92v-8.28c1.14-.63,1.35-1.72,1.52-2.83,1.05-.73,1.33-1.74,1.21-2.96-.04-.41.16-.84.26-1.26.33-.33.65-.65,1.04-1.04v-4.03c.48-.53.93-1.03,1.42-1.58v-5.42c1.44-1.49,2.85-2.96,4.2-4.36-.09-.59-.06-1.08-.25-1.44-.21-.39-.69-.62-.94-1-.7-1.05-.1-2.15,1.28-2.27.22-.02.44-.05.66-.08.65-.65,1.3-1.3,1.98-1.97v-2.7c.48-.52.94-1.02,1.42-1.54v-1.31c1.16-1.17,2.3-2.31,3.44-3.45h1.36c.51-.48.97-1.26,1.49-1.32,1.85-.22,1.88-.15,2-2.04.42-.46.87-.96,1.36-1.5v-2.71c-.44-.48-.91-.98-1.39-1.51v-1.32c-.67-.67-1.33-1.33-2.02-2.01h-2.7c-.52-.48-1.01-.95-1.52-1.42h-1.33c-.52.48-1.02.94-1.54,1.42h-2.69c-1.84,1.84-3.63,3.63-5.46,5.45h-6.92c-.44-.41-.94-.87-1.42-1.32-.49.46-.99.92-1.47,1.36-.5-.03-.94-.07-1.33-.09-.54-.47-1.05-.91-1.5-1.29-2.39,0-4.67,0-6.66,0-.77-.63-1.29-1.04-1.69-1.37-1.51-.05-2.98.3-3.85-1.31h-2.8c-1.41-1.41-2.86-2.85-4.23-4.22-1.96-.1-1.98-.11-2.08-1.94-1.64-1.58-3.29-3.17-5.17-4.98-.3,0-.99.06-1.66-.01-.87-.1-1.84.4-2.59-.4-.17-.64-.33-1.26-.49-1.89-.82-.81-1.63-1.63-2.5-2.49v-2.69c-.95-1-1.89-1.98-2.82-2.95-.05-1.85-.06-1.86-2.33-2.04-.63-.81-1.48-1.89-2.13-2.72h-1.8c-.23.38-.63.74-.64,1.12-.04,1.08-.38,1.73-1.57,1.63-.49-.04-.86.15-1.18.68v5.51c.39.42.85.92,1.33,1.44v2.7c.48.51.94,1.01,1.42,1.52v2.7c.36.36.7.67,1,1.02.11.12.13.32.2.48-1.73,1.88-1.73,1.98,0,3.84-.21.32-.37.72-.66.94-.67.5-.55,1.18-.57,1.9.44.47.9.97,1.36,1.46-.45.48-.91.98-1.32,1.41v2.72c.5.57.95,1.08,1.27,1.44v5.47c-.54.65-.96,1.16-1,1.21-.59,1.86.01,3.25-.54,4.56-.33.33-.66.66-.98.98-.49,1.51.23,3.15-.49,4.63-.33.33-.65.65-1.02,1.02v8.21c-.48.52-.94,1.02-1.42,1.54v1.32c-.48.51-.94,1.01-1.39,1.49.03.48.05.94.07,1.33.43.51.84.98,1.24,1.45-.89.89-1.7,1.7-2.53,2.53-.13,1.08-.26,2.16-.37,3.14-.43.43-.76.76-1.13,1.12v2.69c-.95,1-1.89,1.99-2.81,2.95-.03.49-.05.94-.07,1.3-.47.58-1.22,1.09-1.24,1.63-.04,1.04-.62,1.6-1.17,2.32-.36.47-.36,1.22-.52,1.84-.82.82-1.63,1.63-2.45,2.45-.03.45.06.95-.11,1.34-.28.69-.92.82-1.65.85-.38.02-.73.42-1.1.66,0,.92,0,1.84,0,3.45.53,1.64,1.65,1.15,2.34,1.64.84.84,1.66,1.65,2.49,2.49h4.14c.97-.92,1.95-1.86,2.88-2.74.55-.05.99-.09,1.43-.14.82-.81,1.63-1.63,2.45-2.44.62-.16,1.25-.33,1.87-.49.98-.98,1.96-1.95,2.93-2.93q.49-1.87,2.5-3.69c.44-.04.89-.09,1.33-.13,1.3-1.3,2.61-2.61,3.97-3.96h5.55c.41.37.91.83,1.44,1.32h1.36c1.76,1.79,3.54,3.6,5.24,5.32.32.1.52.18.73.21,1.42.27,1.46.27,1.62,1.53.06.47.16.86.7,1.19h2.69c.65.63,1.37,1.21,1.92,1.92.51.65-.01,1.82,1.08,2.28.4.02.86.04,1.31.06.65.65,1.3,1.3,1.99,1.98ZM53.03,83.37c-.63-.06-1.07-.09-1.52-.13-1.3-1.3-2.61-2.61-3.91-3.91-.44-.04-.89-.08-1.43-.13-.93-.88-1.92-1.82-2.93-2.78h-2.67c-.54-.49-1.05-.94-1.58-1.42h-2.66c-.39-.39-.71-.71-1.05-1.05-.82-.52-1.76-.11-2.63-.29-.4-.08-.74-.44-1.1-1.36v-6.19c.48-.51.94-1.01,1.42-1.52v-2.69c.37-.36.69-.69,1.09-1.09.69-1.88-.11-3.96.41-5.94.33-.33.65-.65,1.03-1.02.62-2.38-.21-4.92.4-7.31.37-.37.69-.69,1.1-1.1v-2.81c-.31-.35-.75-.86-1.22-1.4.41-.45.85-.93,1.31-1.44,0-2.95,0-5.94,0-8.94,0-1.11-.03-1.13,1.98-1.43,1.37,1.33,2.83,2.76,4.3,4.19h1.31c.54.49,1.04.94,1.5,1.36,1.8.12,1.9.13,1.95,1.26.03.79.3,1.39,1.01,1.47,1.14.13,2.3.02,3.45.04.67.01,1.33.07,1.91.1.41.41.74.74,1.17,1.17h2.58c.56.47,1.07.9,1.7,1.42h3.95c.53.48,1.04.93,1.59,1.42h1.27c.53.49,1.03.95,1.51,1.39h4.1c.54-.49,1.04-.94,1.51-1.37.5.04.96.04,1.39.14.19.04.33.31.54.51v4.16c-.39.42-.85.92-1.33,1.44v1.32c-.48.51-.94,1.01-1.39,1.48-.03.49-.05.94-.07,1.34-.47.53-.92,1.04-1.39,1.58v4.01c-.4.4-.73.73-1.05,1.05-.09.43-.28.86-.23,1.27.14,1.24-.2,2.23-1.23,2.95-.11,1.14-.42,2.19-1.51,2.83v2.74c-.48.52-.94,1.02-1.42,1.54v1.32c.45.49.89.98,1.34,1.46-.35.35-.68.68-1.14,1.13-.11.95-.23,2.03-.36,3.12-.33.33-.66.65-1.15,1.14-.04.72-.08,1.6-.13,2.71-.29.36-.71.87-1.25,1.54v2.51c-.47.55-.91,1.05-1.47,1.69,0,.75.02,1.66,0,2.57-.02.52-1.22,1.09-1.65.82-.37-.23-.79-.4-1.09-.69-2.13-2.09-4.23-4.2-6.23-6.21Z"/>
</svg>