<?xml version="1.0" encoding="UTF-8"?>
<svg id="Layer_1" xmlns="http://www.w3.org/2000/svg" version="1.1" viewBox="0 0 200 200">
  <!-- Generator: Adobe Illustrator 29.4.0, SVG Export Plug-In . SVG Version: 2.1.0 Build 152)  -->
  <defs>
    <style>
      .st0 {
        fill: #fff;
      }
    </style>
  </defs>
  <path class="st0" d="M177.94,150.21c-.33-.33-.65-.65-1.05-1.05v-3.01c-.91-.71-1.99-1.55-2.85-2.22v-1.77c-.67-.67-1.32-1.32-2.06-2.05-.62.62-1.31,1.19-1.84,1.88-.24.3-.15.85-.24,1.27-.05.2-.18.39-.27.58-.82.81-1.63,1.63-2.47,2.46v6.85c-.48.52-.94,1.02-1.43,1.54v4.04c-.49.55-.95,1.05-1.35,1.5-.05.52-.09.97-.13,1.41-2.94,2.93-5.87,5.86-8.81,8.8-.45.02-.91.04-1.38.06-.98.93-1.96,1.86-2.9,2.76-.53.04-.98.08-1.42.11-1.02.88-1.75,2.09-2.95,2.62-.99.05-1.88.1-2.57.14-.51.5-.83.83-1.22,1.22h-4.07c-1,.95-1.98,1.89-2.95,2.81h-8.25c-.54-.49-1.04-.94-1.64-1.48-2.69,0-5.44,0-8.19-.02-.16,0-.33-.31-.49-.47-.03-.22-.06-.44-.08-.66-.12-1-.41-1.43-.98-1.5-1.08-.14-2.28.41-3.18-.68-.86-1.04-2.52-.67-3.37-1.94-.76-1.13-1.85-2.03-2.69-2.93h-1.27c-1.47-.78-2.04-2.17-3.36-2.75-.71.07-1.33-.07-1.76-.71v-2.39c.46-1.51,1.72-.69,1.84-.81,1.35-1.35,2.16-2.16,2.99-2.99h1.35c.51-.48,1.01-.94,1.53-1.42h2.7c1.34-1.33,2.64-2.64,3.95-3.94.62-.16,1.25-.33,1.88-.49.81-.81,1.63-1.63,2.45-2.45h1.8c.66-.85,1.51-1.93,2.23-2.85h3c1.86-1.86,3.65-3.66,5.43-5.45h1.55c.26-.76.39-1.67.86-2.33.47-.66,1-1.42,1.88-1.64.54.3.7,1.13,1.5.96,1.96-1.96,3.92-3.91,5.88-5.87.03-.45.07-.89.11-1.49,1.36-1.36,2.8-2.81,4.22-4.22v-4.14c.89-.89,1.71-1.7,2.52-2.52.16-.62.33-1.25.49-1.88.81-.81,1.63-1.63,2.44-2.44,0-1.38,0-2.76,0-4.15.56-1.16,2.28-.2,2.81-1.61v-3.91c.51-.58.95-1.09,1.43-1.63v-8.14c1.69-1.83,1.76-1.97.54-3.4-.49-.58-.65-1.14-.59-2.27.82-.64,1.9-1.48,2.74-2.13v-3.15c-.46-.51-.89-.99-1.33-1.47.2-.2.38-.36.53-.53,1.23-1.38,1.22-1.72-.35-3.34-.14-.14-.16-.39-.23-.57-.14-1.82.25-3.65-.19-5.36-.41-.41-.73-.73-1.06-1.06-.05-.44-.1-.88-.19-1.78-.79-.62-1.87-1.46-2.73-2.13v-1.74c-.49-.53-.94-1.03-1.37-1.5,0-.73.11-1.44-.69-1.93h-2.64c-.52-.48-1.02-.94-1.54-1.42h-2.71c-.51-.48-1.01-.94-1.49-1.39-.49.03-.94.05-1.33.07-.51.43-.98.84-1.45,1.23-1.95-1.8-2.05-1.8-4,0-.46-.39-.93-.79-1.49-1.25h-2.72c-.43.4-.93.87-1.44,1.34-.44,0-.9,0-1.36,0-1.31,1.3-2.61,2.61-3.97,3.97-1.05.13-2.07.41-2.83,1.38-.19.24-.84.13-1.53.21-3.27,3.27-6.69,6.67-10.09,10.09-.14.14-.18.38-.26.58-.19,1.05.53,2.32-.76,3.14h-1.3c-.54.49-1.04.94-1.5,1.36-.52.04-.96.08-1.41.12-.65.65-1.3,1.3-1.96,1.96v1.39c-.65.64-1.31,1.29-1.97,1.95-.43.04-.87.08-1.31.12-1.36.88-2.35,2.01-2.5,3.7-.82.81-1.63,1.63-2.45,2.44-.03.45-.05.9-.08,1.39-.44.47-.91.97-1.39,1.48v1.35c-1.31,1.31-2.61,2.61-3.92,3.92-.17,1.11-.36,2.21-1.54,2.88v3.03c-.92.72-2,1.56-2.85,2.22v3.16c-.92,1.02-2.06,1.82-2.66,2.86v2.75c.42.42.75.75,1.19,1.19-.38.44-1.03.86-1.1,1.36-.17,1.18-.52,2.15-1.55,2.82v2.74c-.47.52-.92,1.02-1.36,1.49.46.5.91,1,1.34,1.47-.04.5-.08.95-.12,1.39-.33.33-.72.61-.97.99-.57.87-.4,1.68.74,2.7.35,1.27.35,2.19.35,3.08-.48.52-.94,1.02-1.39,1.49.03.49.06.94.09,1.33.47.54.91,1.05,1.3,1.49q0,8.98-.67,10.21h-5.53c-.48-.45-.99-.91-1.46-1.34h-1.32c-.56.5-1.06.95-1.45,1.29-1.47.61-1.89-1.01-2.94-1.11-.33.33-.66.66-1.08,1.08-.46-.38-.93-.77-1.5-1.24h-3.99c-.52-.48-1.02-.94-1.55-1.42h-4.09c-.51-.48-1.01-.94-1.49-1.39-.48-.02-.93-.05-1.38-.07-.68-.56-1.11-1.46-2.23-1.34-.78.08-1.08-.72-1.61-1.1-.7-.5-1.84,0-2.34-1.07v-1.29c-.38-.23-.74-.49-1.13-.66-.39-.16-.83-.22-2.03-.52-1.21-1.37-2.88-3.26-4.44-5.04-.92.05-1.59.02-2.05-.68v-2.69c-.48-.52-.94-1.02-1.43-1.54v-2.7c-.84-.84-1.66-1.64-2.46-2.47-.09-.1-.05-.32-.08-.48.33-.33.65-.65,1.08-1.08-.38-.46-.76-.92-1.2-1.45.39-.44.82-.92,1.25-1.4-.43-.48-.89-.97-1.31-1.44v-19.29c.5-.56.95-1.06,1.3-1.46.28-1.2-.37-1.82-1.06-2.45-.09-.08-.04-.31-.05-.48.33-.33.65-.65.98-.98.01-1.19.45-2.17,1.46-2.84.03-.45.06-.9.1-1.4.43-.47.89-.96,1.34-1.45-.43-.47-.87-.95-1.28-1.41.47-.53.92-1.04,1.39-1.58v-2.53c.54-.65.96-1.16,1.3-1.57.1-1.51-.2-2.88.25-4.21.33-.33.65-.65.98-.98-.03-1.21.47-2.15,1.46-2.84.03-.45.06-.9.09-1.4.44-.47.9-.97,1.38-1.48v-1.33c.48-.51.94-1.01,1.43-1.53v-4.07c.86-.86,1.67-1.67,2.49-2.49.16-.62.16-1.37.52-1.84.56-.72,1.13-1.28,1.17-2.32.02-.54.78-1.04,1.28-1.66v-2.61c.48-.52.95-1.01,1.43-1.53v-1.32c.48-.52.94-1.02,1.43-1.54v-2.7c1.07-.71,1.5-1.69,1.51-2.87.82-.82,1.64-1.63,2.46-2.45-.11-1.25.52-2.13,1.49-2.86v-1.31c.49-.53.95-1.03,1.43-1.54v-1.34c.83-.83,1.78-1.55,2.42-2.48.59-.87.38-2.19,1.5-2.84.14-.08.19-.38.21-.59.11-.88-.24-1.81.27-2.64.83-.83,1.64-1.64,2.48-2.48v-1.29c.55-1.28,2.26-.33,2.79-1.54.25-1.08-.49-2.31.7-3.41,2.11,0,4.4.03,6.69-.04.32,0,.62-.54.86-.77v-3.69c-1.27-1.48-2.3-2.67-3.32-3.87-.49.49-.81.82-1.14,1.14-.32.31-.65.19-.99-.37v-2.88c-.6-.56-1.23-1.25-1.96-1.79-.31-.23-.86-.13-1.38-.19-.47.41-.97.86-1.57,1.39-.56,0-1.25-.06-1.93.01-.87.09-1.84-.39-2.59.39-.17.64-.33,1.26-.49,1.89-1.3,1.3-2.61,2.61-3.92,3.92v1.35c-.48.51-.94,1.01-1.39,1.49-.02.48-.05.93-.07,1.39-.9,1.01-2.07,1.78-2.67,2.96-.04.97-.09,1.86-.12,2.59-.97.97-1.78,1.78-2.6,2.59-.03.45-.06.9-.09,1.39-.89.95-1.81,1.92-2.72,2.88.43.52,1.29.88,1.12,1.5-.23.82-1.15.48-1.92.56-.56.61-1.18,1.28-1.94,2.11v2.5c-.48.54-.92,1.05-1.43,1.62v2.64c-.96,1.01-1.9,1.99-2.8,2.94-.04.52-.07.96-.1,1.41-.33.33-.77.6-.95.99-.27.57-.2,1.34-.55,1.83-.51.72-1.13,1.24-1.25,2.28-.08.75-.91,1.43-1.3,2v2.35c-.41.46-.85.96-1.35,1.52v2.65c-.96,1.01-1.9,1.99-2.85,2.99v2.68c-.93,1.08-2.15,1.81-2.67,3.01-.05.99-.1,1.87-.14,2.57-.51.51-.83.83-1.22,1.22v2.65c-.48.53-.93,1.04-1.43,1.59v4.04c-.48.53-.95,1.03-1.43,1.55v2.67c-.49.54-.95,1.04-1.43,1.57v2.58c-.52.62-.95,1.13-1.22,1.44v2.82c.43.43.75.75,1.08,1.08-.07.84-.63.96-1.31.89-.5-.05-.88.12-1.2.68v5.38c-.48.53-.94,1.03-1.43,1.57v4.1c.44.48.91.98,1.34,1.46v1.32c-.5.55-.95,1.06-1.29,1.44v8.24c.53.63.96,1.14,1.3,1.55.13,1.96-.21,3.79.19,5.57,1.26.6,1.12,1.87,1.51,2.86.82.82,1.64,1.64,2.45,2.45-.44.48-.88.97-1.31,1.45.67.67,1.32,1.32,2,2h1.3c2.04,1.86,2.03,1.87,2.2,3.33-.4.46-.84.97-1.36,1.57,2.55,2.54,5.17,5.08,7.68,7.72.83.88,1.86,1.06,2.85,1.51.76.34,1.24,1.31,2.31,1.11.68.59,1.39,1.14,2.03,1.77,1.49,1.45,2.93,2.93,4.42,4.39.31.3.71.51,1.05.76,1.82.12,3.66-.22,5.4.17.38.38.71.71,1.04,1.04,1.19.02,2.17.45,2.88,1.51h2.7c.52.48,1.02.94,1.55,1.42h4.09c.51.48,1.01.94,1.53,1.42h6.8c.57.5,1.08.95,1.62,1.42h12.32c.4.4.69.96,1.06,1.01,1.67.26,2.83,1.17,3.71,2.52.04.45.08.9.12,1.34,1.96,1.96,3.92,3.91,5.93,5.92,1.04.14,2.07.41,2.83,1.38.19.25.84.13,1.75.24.62.79,1.46,1.87,2.12,2.72h1.79c1.01.92,1.83,2.04,3.17,2.85h2.35c.68.55,1.19.96,1.55,1.25,1.12.06,2.01.1,2.71.14.5.5.82.82,1.22,1.22h2.64c.54.48,1.04.93,1.6,1.42h4.09c.46-.43.96-.89,1.47-1.37h8.23c.53-.49,1.03-.94,1.56-1.42h9.59c.87-.87,1.69-1.68,2.51-2.5,1.14-.11,2.2-.39,2.88-1.53h2.71c1-.95,1.99-1.89,3-2.85h1.33c.18-.18.38-.32.5-.51.11-.18.18-.41.17-.62-.16-1.73,1.13-1.59,2.19-1.72.84-.83,1.65-1.65,2.47-2.46.62-.16,1.25-.33,1.87-.49,1.47-1.47,2.94-2.93,4.48-4.47v-2.71c.94-.97,1.89-1.94,2.81-2.89-.43-.48-.87-.97-1.29-1.44.86-.86,1.67-1.67,2.49-2.49.07-.2.21-.4.21-.6.01-3,.01-5.99,0-8.99,0-.19-.17-.39-.26-.58ZM97.21,152.5h-2.65c-.23-.26-.75-.57-.76-.89-.06-3.2-.04-6.4-.04-9.41-1.88-2.04-1.88-2.13-.08-4.09v-3.99c.47-.54.91-1.05,1.39-1.59-.41-.45-.85-.93-1.31-1.44v-1.76c.84-.66,1.92-1.51,2.81-2.21-.1-.81,0-1.36-.23-1.67-.53-.74-1.22-1.36-1.76-1.94-.41,0-.65-.04-.87,0-.52.11-.95-.03-1.15-.53-.13-.33.16-.7.67-.84.42-.12.89-.09,1.33-.13.81-.81,1.63-1.63,2.46-2.45.73-.36,1.82.05,2.31-1.11v-2.58c1.34-1.33,2.64-2.64,3.94-3.94.3-1.47.43-1.8,1.46-2.84.03-.45.07-.89.11-1.49,1.36-1.36,2.8-2.8,4.12-4.12.07-.67.12-1.11.22-2,2.5-2.5,5.26-5.25,8.14-8.13.02-.22-.08-.77.15-1.07.54-.73,1.24-1.35,1.84-1.96h1.46c.66-.66,1.31-1.31,1.96-1.96.03-.45.07-.89.13-1.63,1.04-.91,2.24-1.96,3.66-3.21.07,0,.51-.06,1.12-.12.55-.53,1.24-1.12,1.83-1.8.57-.65,0-1.83,1.05-2.34h1.29c.52-.48,1.02-.94,1.48-1.37.5-.03.95-.06,1.4-.09.81-.81,1.63-1.63,2.55-2.55.55-.04,1.22-.18,1.87-.11,1.09.12,1.63-.62,2.4-1.4,1.68,0,3.5,0,5.32.01.19,0,.37.2.66.37.73,1.89-.09,3.97.38,5.95,1.76,1.91,1.76,2.03.1,3.82-.4,1.33-.14,2.7-.22,4.2-.35.42-.78.93-1.31,1.56v8.24c.34.38.78.88,1.26,1.41.02.4.04.85.06,1.33-.45.48-.92.98-1.39,1.49v1.32c-.48.52-.94,1.02-1.37,1.48-.04.5-.07.95-.1,1.4-.33.33-.65.65-1.04,1.04-.68,1.9.1,3.97-.42,5.95q-.48.53-1.95.52c-.58.62-1.2,1.3-1.95,2.11v2.85c-.93.73-2,1.57-2.85,2.24,0,.87,0,1.33-.35,2.14-1.3.87-.76,2.03-1.33,2.69-.6.69-1.29,1.31-1.94,1.96l-1.47,1.46c-1.47,1.46-2.93,2.93-4.4,4.39-.07.2-.16.4-.2.61q-.35,1.58-2.17,1.75c-.56,1.57-2.56.8-3.3,1.97-.7,1.1-2.29.23-2.86,1.62v1.19c-.85,1.14-2.78.38-3.35,1.96-1.17.6-.38,2.2-1.48,2.85h-4.11c-.51.47-1.01.94-1.49,1.39-.48.02-.93.04-1.39.06-.71.95-1.6,1.56-2.84,1.46-.82.82-1.63,1.63-2.54,2.54h-2.6c-.55.47-1.06.91-1.66,1.42Z"/>
</svg>