<?xml version="1.0" encoding="UTF-8"?>
<svg id="Layer_1" xmlns="http://www.w3.org/2000/svg" version="1.1" viewBox="0 0 110 160">
  <!-- Generator: Adobe Illustrator 29.4.0, SVG Export Plug-In . SVG Version: 2.1.0 Build 152)  -->
  <defs>
    <style>
      .st0 {
        fill: #fff;
      }
    </style>
  </defs>
  <path class="st0" d="M64.86,137.55c.33.32.65.65,1.06,1.06.58.03,1.24.11,1.91.09.42-.01.84-.18,1.26-.27.32-.33.65-.65,1.05-1.05.95.91,1.91,1.81,2.88,2.74h1.3c.54.49,1.03.94,1.55,1.42h4.05c.86.86,1.67,1.67,2.49,2.48.62.16,1.37.16,1.84.52.72.55,1.27,1.13,2.32,1.16.54.02,1.04.77,1.61,1.22.44-.4.92-.83,1.42-1.29h2.79c.61-.62,1.31-1.23,1.86-1.96.23-.3.12-.86.18-1.37-.41-.46-.86-.97-1.33-1.49-.02-.4-.04-.85-.08-1.68-.48-.41-1.08-1.24-1.88-1.54-1.03-.39-2.14-.5-2.84-1.5-.09-.13-.42-.15-.62-.12-1.12.17-1.53-.81-2.25-1.37h-2.68c-.51-.48-1.01-.94-1.52-1.42h-1.32c-.52-.48-1.02-.94-1.54-1.42h-4.01c-.58-.51-1.08-.95-1.62-1.42h-2.63c-.7-.7-1.23-1.4-2.32-1.34-.71.04-1.06-.75-1.58-1.15-.08-.06-.31.07-.48.11-.32.32-.65.65-.97.97-.45.03-.89.07-1.39.11-.47-.43-.97-.89-1.5-1.37h-1.3c-.51-.47-1.01-.94-1.53-1.41h-5.43c-.53-.49-1.03-.94-1.55-1.42h-3.99c-.59-.51-1.1-.95-1.64-1.42h-2.62c-.7-.72-1.27-1.26-2.32-1.38-.76-.08-1.44-.89-2.05-1.3-.83,0-1.52,0-2.21,0-.35-.27-.78-.47-1.03-.81-.5-.66-1.17-.56-1.9-.57-.47-.43-.97-.89-1.49-1.37h-1.34c-.49.45-.98.91-1.51,1.39h-1.31c-.67.67-1.32,1.32-1.97,1.97-.03.45-.05.9-.08,1.39.44.47.91.97,1.38,1.48v1.25c.6,1.25,2.14.45,2.86,1.54.75,1.13,2.72.42,3.31,1.99h4.12c.5.48.99.95,1.83,1.76.71.58,1.09,1.02,1.43,1,1.1-.09,1.6.69,2.37,1.42,1.69,0,3.51,0,5.33.01.18,0,.37.21.55.33.32.32.65.65,1.01,1.01h4.08c.51.48,1.01.94,1.49,1.39.47-.43.95-.87,1.43-1.31,1.04.92,1.81,2.09,3.05,2.72,1.35.08,2.72-.19,4.05.22Z"/>
  <path class="st0" d="M29.21,46.89c-.13-1.24.53-2.1,1.49-2.84v-1.28c.92-1.62,2.58-.32,3.7-1.04,1.46-1.46,2.93-2.92,4.4-4.4.42-.71-.04-1.82,1.05-2.32h1.28c.23-.39.48-.74.65-1.13.08-.19-.05-.48.03-.68.26-.69.75-.93,1.52-.97,1.13-.07,1.14-.17,1.24-1.96.43-.46.88-.96,1.37-1.49v-1.26c.51-1.06,1.62-.58,2.32-1.03,1.32-1.31,2.63-2.6,3.91-3.92.29-.3.47-.72.7-1.08,0-.69,0-1.38,0-2.07-.25-.35-.46-.77-.78-1.05-.39-.34-.65-.67-.6-1.14.16-1.75-1.21-1.49-2.2-1.7-.83-.83-1.64-1.64-2.46-2.46-1.02.2-1.46,1.74-2.83,1.18-.49.44-.99.9-1.52,1.39h-1.24c-1.08.5-.62,1.61-1.05,2.32-4.08,4.07-8.14,8.13-12.22,12.2v1.5c-.6.56-1.22,1.25-1.96,1.79-.31.23-.86.13-1.55.21-.82.82-1.78,1.78-3.08,3.08-2.13,2.13-3.92,3.92-5.8,5.79v2.71c.18.23.38.66.72.92.66.5.57,1.17.58,1.99,1.05,1.05,2.15,2.21,3.33,3.28.27.24.85.13,1.37.19.46-.41.97-.85,1.5-1.32.4-.02.85-.05,1.34-.08.47-.44.97-.9,1.48-1.38h1.37c.64-.65,1.28-1.3,1.94-1.96Z"/>
  <path class="st0" d="M28.4,82.27c-.56.35-.54.66.24,1.06h2.55c.54.48,1.05.92,1.59,1.39.4.02.85.05,1.34.08.47.44.97.9,1.48,1.38h6.86c.5-.46.98-.9,1.44-1.31.54.48,1.05.92,1.41,1.23h14.71c1.18-.31,1.28-1.22,2.12-1.06.58.69,1.2,1.36,2.43,1.09.39-.34.9-.78,1.44-1.25.39-.02.84-.05,1.33-.09.48.44.97.91,1.49,1.38h6.88c1.14-1.14,2.28-2.28,3.42-3.42-.44-.48-.88-.98-1.35-1.49v-1.32c-.85-1.15-2.79-.4-3.36-1.98-.45-.03-.9-.06-1.4-.09-.96-.91-1.94-1.85-2.87-2.72h-12.4c-.55.47-1.02.87-1.44,1.23-.6-.49-1.11-.92-1.69-1.39-1.33.4-2.72-.18-4.04.36-.33.33-.66.66-1.07,1.07-.46-.39-.93-.79-1.49-1.25h-2.71c-.9.85-1.87,1.77-2.82,2.66-1.25-.45.05-2.33-1.46-2.54-.55.45-1.06.87-1.65,1.35-1.32-.43-2.71.19-4.03-.37-.33-.33-.66-.66-1.07-1.07h-2.94c-.76.76-1.69,1.75-2.69,2.67-.44.4-.64.66-.4.99.82.81,1.63,1.63,2.43,2.43-.45,1.03-1.56.54-2.27.98Z"/>
</svg>