<?xml version="1.0" encoding="UTF-8"?>
<svg id="Layer_1" xmlns="http://www.w3.org/2000/svg" version="1.1" viewBox="0 0 104.62 114.18">
  <!-- Generator: Adobe Illustrator 29.4.0, SVG Export Plug-In . SVG Version: 2.1.0 Build 152)  -->
  <defs>
    <style>
      .st0 {
        fill: #fff;
      }
    </style>
  </defs>
  <path class="st0" d="M99.33,65.41c-.51-.58-.95-1.09-1.42-1.63v-2.61c-.89-.89-1.71-1.71-2.52-2.52-.41-2.08-.42-2.09-2.35-2.35-.81-.81-1.63-1.62-2.45-2.44-1.12-.14-2.2-.37-2.88-1.52h-2.67c-.54-.47-1.04-.92-1.57-1.39-.4-.02-.85-.04-1.34-.07-.47-.44-.97-.91-1.48-1.38h-12.4c-.5-.47-1-.93-1.48-1.38-.48.02-.93.04-1.33.06-.51.44-.98.84-1.41,1.21-.59-.49-1.1-.92-1.66-1.38h-2.57c-.43-.43-.76-.76-1.16-1.16-1.93-.18-3.94-.19-5.77,0-.49.49-.82.82-1.21,1.2h-2.65c-.53.48-1.03.92-1.58,1.42h-1.19c-1.85,1.85-3.63,3.63-5.18,5.17-1.05.56-2.15.13-2.64,1.25v2.59c-.57.72-1.53,1.12-1.37,2.25.14.97-1.21,1.16-1.17,2.09.33.33.65.65.98.98.09.35-.1.68-.61.88-.2.08-.46-.02-.68.02-1.1.18-1.1.19-1.28,1.97-.41.45-.86.95-1.35,1.5v2.65c-.48.52-.95,1.02-1.42,1.53v2.7c-.48.53-.94,1.02-1.34,1.45v11.08c1.6.59.9,2.49,1.86,3.24.77.16,1.4.29,2.05.42.13,1.24.25,2.33.36,3.35,1.23,1.13,2.19,2.42,3.55,3.29.7-.05,1.36.01,1.81.69v1.31c.94,1.53,2.61.21,3.72,1,.33.32.65.65,1.06,1.06h2.62c.54.47,1.05.91,1.63,1.42h4.01c.52.48,1.01.94,1.54,1.42h2.71c.51.47,1,.94,1.46,1.37h2.76c.35-.35.69-.67,1-1,.53-.56,1.31-.18,1.86-.5.57-.33,1.03-1.15,1.56-1.17,1.06-.03,1.59-.67,2.29-1.22.53-.41,1.26-.39,1.84.06.36.28.66.64,1.07,1.05.95-.91,1.9-1.82,2.86-2.74h1.31c.53-.49,1.03-.94,1.49-1.36.51-.04.96-.08,1.4-.11.81-.81,1.63-1.62,2.44-2.44.62-.16,1.25-.32,1.87-.48.81-.81,1.63-1.62,2.44-2.44.45-.02.9-.04,1.19-.06,2.22-2.15,4.36-4.22,6.51-6.31v-1.32c1.81-1.81,3.6-3.59,5.45-5.45v-2.64c.48-.53.92-1.03,1.42-1.58v-4.03c.48-.51.94-1,1.38-1.48-.46-.5-.92-.99-1.4-1.51v-4Z"/>
  <path class="st0" d="M56.46,14.18c-.08-.6.27-1.37-.54-1.83-.18-.05-.38-.15-.59-.17-.46-.03-.92,0-1.38-.01-1.32-.05-1.41-.11-1.63-1.53-.07-.47-.16-.86-.7-1.19h-4.02c-.52-.48-1.02-.94-1.56-1.43-1.1,1.14-2.22,2.29-3.4,3.51v1.37c-.64.56-1.32,1.17-2.19,1.93.05-.02-.15.08-.36.09-.46.03-.92,0-1.38,0-1.29.02-1.51.32-1.74,2.18-.88,1.02-2.1,1.75-2.69,3.12.04.81.09,1.7.13,2.39.51.51.83.83,1.16,1.16.04.44.09.89.14,1.45.55.58,1.18,1.24,1.84,1.94.71.35,1.8-.05,2.31,1.01v4.21c.77.27,1.58.55,2.38.83.82.81,1.63,1.63,2.79,2.79.71.58,1.06.96,1.45,1.01,1.33.18,2.72-.22,4.01.3.34.34.67.67,1.05,1.05.48-.42.95-.84,1.44-1.26.47.43.97.88,1.44,1.3h1.3c.58-.49,1.04-1.1,1.63-1.31.6-.22,1.36.02,1.84-.74v-2.74c-.41-.44-.87-.93-1.32-1.41.46-.49.92-.99,1.4-1.51v-2.7c1.05-.71,1.51-1.68,1.51-2.84.3-.54,1.13-.69.96-1.5-.33-.33-.66-.66-1.06-1.06v-5.47c-.63-.64-1.21-1.34-1.89-1.93-.65-.56-1.83,0-2.33-1.04Z"/>
  <path class="st0" d="M32.91,51.59v-1.33c.48-.52.94-1.02,1.38-1.49v-1.32c-.5-.55-.95-1.05-1.31-1.46-.06-1.96-.11-3.78-.2-5.61,0-.17-.31-.33-.47-.49-.45-.02-.9-.05-1.39-.07-.97-.92-1.95-1.86-2.9-2.76-.52-.04-.97-.07-1.35-.1-.54-.47-1.05-.91-1.6-1.38h-2.5c-.68-.55-1.19-.96-1.79-1.44-1.32.46-2.71-.2-4.02.4-.33.33-.66.66-.99.99-1.25-.1-2.13.51-2.87,1.49h-4.04c-1.33.54-.38,2.25-1.56,2.79-.66.08-1.42-.26-1.88.55-.53,1.95.26,4.03-.42,5.93-.39.39-.71.71-1.09,1.09.91.97,1.82,1.93,2.72,2.89.06,1.84.07,1.86,1.97,2,.45.41.96.86,1.51,1.35h1.28c1.01.96,2,1.89,3.01,2.85h2.61c.62.52,1.13.95,1.56,1.32,3.12,0,6.12.02,9.12-.03.37,0,.73-.43,1.44-1.01,1.3-.87.81-2,1.3-2.68.84-.84,1.66-1.65,2.49-2.49Z"/>
  <path class="st0" d="M99.37,29.45c0-3.1.02-6.31-.04-9.52,0-.24-.53-.46-.69-.59-.71.12-.77,1.11-1.65.86-.6-.63-1.22-1.29-1.76-1.86-.06-.58-.11-1.02-.15-1.36-.69-.73-1.32-1.4-1.92-2.05h-1.38c-.53-.49-1.03-.94-1.44-1.32h-5.56c-2.99,2.99-5.93,5.92-8.86,8.85-.03.45-.06.9-.09,1.4-.44.47-.9.97-1.38,1.48,0,1.36,0,2.74.35,4.47,1.3.87.81,2,1.3,2.68.84.84,1.66,1.65,2.49,2.49v1.33c.17.19.3.47.47.5,1.08.18,2.17.31,3.19.44.39.39.72.72,1.2,1.2,2.13,0,4.41,0,6.7-.01.19,0,.37-.21.55-.32.33-.33.65-.65,1.01-1.01h2.7c.52-.48,1.01-.95,1.52-1.41.63-.09,1.4.28,1.87-.54.48-1.48-.18-3.11.48-4.6.33-.33.65-.65,1.09-1.09Z"/>
</svg>