<?xml version="1.0" encoding="UTF-8"?>
<svg id="Layer_1" xmlns="http://www.w3.org/2000/svg" version="1.1" viewBox="0 0 110 160">
  <!-- Generator: Adobe Illustrator 29.4.0, SVG Export Plug-In . SVG Version: 2.1.0 Build 152)  -->
  <defs>
    <style>
      .st0 {
        fill: #fff;
      }
    </style>
  </defs>
  <path class="st0" d="M24.48,148.38h2.63c.54.47,1.04.92,1.61,1.42h8.25c.43-.4.93-.86,1.42-1.32.48.45.97.9,1.49,1.38h2.64c.54.46,1.01.87,1.44,1.25.58-.49,1.09-.91,1.52-1.27,1.46-.07,2.91.34,3.83-1.16.15-.24.82-.16,1.26-.22,1.21.68,2,1.82,3.01,2.72.49-.45.98-.89,1.48-1.34,4.6,0,9.2,0,14.14-.35.71-.58,1.07-1,1.44-1.01,3.68-.05,7.36-.02,11.04-.04.43,0,.85-.16,1.28-.24,1.06-1.18,2.38-2.11,3.2-3.48.26-1.76-1.37-2.18-2.21-3.22h-5.38c-.54-.46-1.02-.87-1.44-1.24-.59.49-1.1.92-1.54,1.28-1.48-.08-2.85.18-4.18-.22-.33-.33-.65-.65-1.05-1.05-1.93-.18-3.94-.19-5.77,0-.49.49-.81.81-1.27,1.27-3.53,0-7.19,0-10.85-.01-.18,0-.37-.21-.55-.32-.33-.32-.65-.65-1.01-1.01h-4.16c-.43.4-.93.86-1.42,1.31-.48-.45-.98-.91-1.42-1.32h-4.1c-.56.5-1.06.94-1.58,1.41h-10.74c-1.34,1.24-2.52,2.33-3.65,3.37.26,1.18-.46,2.41.65,3.41Z"/>
  <path class="st0" d="M24.55,75.17h2.71c1.48,1.44,2.94,2.86,4.17,4.05,1.24.13,2.13.23,3.03.33.76,1.62,3.08.77,3.88,2.42.1.2.85.09,1.13.12,2.36,2.36,4.63,4.63,6.96,6.95,1.38-.36,2.21.36,2.93,1.26.47.03.92.06,1.43.1.47.43.97.89,1.49,1.37h2.71c.51.48,1.01.94,1.49,1.39.49.03.94.05,1.44.08.63,1.02,1.71,1.19,2.78,1.54.76.25,1.2,1.17,2.28,1.21,1.06.04,1.52,1.71,2.89,1.33.52.42,1.05.84,1.63,1.31.35.02.8.05,1.29.08.48-.44.97-.91,1.49-1.39h2.05c1.31-.45,1.45-1.08,1.38-1.8-.25-.34-.47-.73-.77-1.04-1.78-1.8-3.56-3.61-5.4-5.35-.25-.24-.88-.08-1.42-.11-1.4-1.39-2.85-2.82-4.27-4.23h-2.75c-.91-.9-1.72-1.72-2.67-2.66-1.2.38-1.96-.48-2.73-1.36h-3.02c-.65-.72-1.39-1.59-2.2-2.4-.63-.63-1.35-1.18-2.03-1.77-1.54.43-2.05-1.79-3.58-1.38-.53-.4-1.07-.8-1.76-1.32h-2.62c-1.42-1.41-2.86-2.86-4.27-4.26-1.45.6-1.88-.98-2.91-1.13-.33.33-.64.68-.99.97-.15.13-.4.14-.6.21h-2.08c-.23,0-.47-.03-.69,0-.43.07-.91.09-1.25.3-.69.43-.31,1.23-.49,1.78-.48.55-.92,1.06-1.3,1.49-.05.8-.01,1.47.68,1.93Z"/>
  <path class="st0" d="M58.47,15.93c-.14.97,1.23,1.14,1.16,2.09-.33.33-.66.66-1.08,1.08.38.46.77.93,1.24,1.49v2.62c.95,1,1.89,1.98,2.85,2.99v2.65c.5.56.95,1.07,1.43,1.6v2.63c1.38,1.37,2.68,2.68,4.03,4.03v2.68c.48.52.94,1.02,1.43,1.54v1.32c.48.51.94,1.01,1.38,1.47.06.7-.17,1.45.66,1.93.45-.39.93-.8,1.42-1.23,1.21.48.24,2.19,1.49,2.72h1.31c1.03.92,1.82,2.06,3.02,2.74.72.07,1.36-.05,1.81-.69v-5.49c.48-.51.94-1.01,1.39-1.49-.03-.49-.05-.94-.08-1.39-.28-.45-.67-.55-1.13-.63-1.53-.29-1.53-.32-1.57-1.59-.02-.67-.06-1.34-.09-1.94-.23-.23-.38-.41-.56-.55-1.06-.88-.57-2.64-1.94-3.36-.13-.07-.19-.41-.16-.6.17-1.11-.74-1.57-1.36-2.28v-4.07c-.49-.51-.96-1-1.77-1.84-1.3-.87-.81-2-1.3-2.68-.84-.84-1.66-1.65-2.49-2.49v-2.71c-.48-.52-.94-1.02-1.43-1.54v-1.29c-1.17-1.18-2.31-2.33-3.43-3.46h-1.36c-.52-.48-1.02-.94-1.49-1.38-.49.03-.94.06-1.2.08-1.28,1.2-2.45,2.29-3.53,3.31v1.47c.58.72,1.53,1.13,1.36,2.26Z"/>
</svg>