<?xml version="1.0" encoding="UTF-8"?>
<svg id="Layer_1" xmlns="http://www.w3.org/2000/svg" version="1.1" viewBox="0 0 104.62 114.18">
  <!-- Generator: Adobe Illustrator 29.4.0, SVG Export Plug-In . SVG Version: 2.1.0 Build 152)  -->
  <defs>
    <style>
      .st0 {
        fill: #fff;
      }
    </style>
  </defs>
  <path class="st0" d="M28.05,55.03c-.87.87-1.69,1.68-2.53,2.53-.68.36-1.77-.11-2.18.96q1.23,1.31.63,1.97h-1.45c-.57.64-1.19,1.32-1.94,2.16-.38,1.23-.11,1.76-1.4,2.62-.03.45-.06.9-.09,1.4-.44.47-.9.97-1.35,1.45.45.48.92.98,1.32,1.41v8.3c-.85.85-1.68,1.66-2.47,2.49-.08.08-.01.32-.01.48.32.32.65.65,1.06,1.05v2.62c.48.54.92,1.05,1.39,1.59.02.39.05.84.08,1.34.44.46.91.96,1.73,1.79.81.35,1.27.35,1.69.35,1.02.52.49,1.66,1,2.35,1.2,1.06,2.09,2.43,3.55,3.19,1.08-.22,1.61.59,2.32,1.29h2.78c1.89,1.89,3.81,3.81,5.7,5.69h11.07c1.95,1.8,2.05,1.8,4,0h2.62c.54-.48,1.05-.92,1.62-1.42h2.64c.52-.48,1.01-.95,1.53-1.42h2.71c.51-.48,1.01-.94,1.48-1.38.5-.03.95-.06,1.39-.09.66-.58,1.12-1.37,2.23-1.33,1.12.04,1.52-1.72,2.88-1.35.52-.41,1.07-.79,1.56-1.23.52-.46.93-1.05,1.49-1.44.87-.61.64-1.59.94-2.35.84-.84,1.65-1.65,2.52-2.52v-4.05c.48-.53.94-1.03,1.42-1.56v-2.72c-.45-.48-.91-.98-1.39-1.51v-9.6c-4.75-4.75-9.48-9.47-14.21-14.18-.15-.14-.37-.21-.73-.4h-2.42c-.42-.42-.74-.74-1.13-1.13-1.02-.11-2.11-.23-3.11-.34-.9-.9-1.72-1.71-2.55-2.54-.49.45-.98.89-1.46,1.33h-2.71c-.52-.46-1-.89-1.47-1.31-.37.37-.68.73-1.03,1.02-.58.47-1.27.43-1.85.09-.56-.33-1.02-.83-1.44-1.19-1.96.16-3.79-.25-5.49.2-.41.41-.74.74-1.19,1.19-1.21-.4-1.95.49-2.73,1.36h-1.34c-1.01.96-2,1.9-3,2.85h-2.69Z"/>
  <path class="st0" d="M45.88,37.03c.58.32,1.05.83,1.65,1.32h6.84c.44-.41.94-.87,1.45-1.35h1.75c.67-.85,1.52-1.92,2.25-2.84h2.91c.76-.73,1.42-1.37,2.06-1.99v-1.38c.48-.52.94-1.01,1.37-1.48.03-.5.06-.95.09-1.39.33-.32.66-.64.97-.98.62-.66.05-1.77.96-2.37,1.18-.77.62-2.05.75-3.12.03-.2.15-.4.22-.59.32-.32.65-.65,1.06-1.06-.38-.46-.78-.93-1.25-1.49v-2.82c-1.11-.97-2.31-2.02-3.75-3.28-.91.27-1.7-.53-2.46-1.44h-2.8c-.43.4-.92.86-1.44,1.34h-2.71c-.5.47-1,.94-1.51,1.41h-2.66c-.55.49-1.05.94-1.5,1.35-.52.05-.97.09-1.41.13-.65.65-1.3,1.3-2.3,2.29-.81.35-1.27.35-1.69.35-1.02.51-.49,1.65-1.02,2.35-.4.52-1.18.82-1.09,1.61.13,1.12-.79,1.54-1.37,2.25v9.81c1.05.94,2.23,2.01,3.6,3.24.14.01.65-.07,1,.13Z"/>
  <path class="st0" d="M7.24,41.05c.45.03.89.06,1.4.1.46.42.96.88,1.49,1.36h4.06c.51.47,1.01.93,1.5,1.4h6.86c.51-.47.96-1.27,1.48-1.32,1.84-.2,1.86-.12,2.02-2.15,1.79-1.79,3.71-3.71,5.46-5.46v-9.79c-1.03-1.03-1.98-2.02-2.98-2.96-1.15-1.08-2.1-2.38-3.33-3.12h-6.78c-.66.54-1.17.96-1.54,1.26-1.69.33-3.4-.75-4.71.77v1.34c-.45.66-1.14.57-1.77.75-.59.16-1.07.75-1.75,1.27h-2.43c-.97.73-1.84,1.41-2.35,2.44,0,.69.08,1.39-.03,2.06-.06.39-.43.73-1.01,1.44-.35,2.64-.35,4.92-.35,7.3.62.58,1.29,1.2,2.01,1.87,1.11-.03,2.05.46,2.74,1.45Z"/>
  <path class="st0" d="M78.59,50.53c.04.72.18,1.3.88,1.7h3.98c.55.49,1.05.94,1.44,1.3h2.71c.61-.52,1.11-.95,1.65-1.41h3.8c.75-.53,1.25-1.11,1.84-1.24.66-.15,1.31-.16,1.73-.83v-1.31c1.15-1.15,2.23-2.35,3.45-3.38.43-.36,1.48.25,1.8-.53.29-.71-.64-.95-1-1.55.36-.43.76-.9,1.2-1.41-.41-.45-.84-.93-1.28-1.4.45-.48.91-.97,1.32-1.41v-1.36c-.31-.48-.7-.6-1.14-.7-1.59-.35-1.57-.37-1.6-1.54-.03-1.13-.05-2.26-.13-3.39-.01-.17-.3-.33-.51-.53h-4.05c-.52-.47-1.01-.92-1.55-1.41h-6.86c-.46.43-.95.89-1.45,1.36-.44,0-.9,0-1.36,0-1.16.57-.2,2.26-1.48,2.76-.45.02-.9.04-1.35.06-.65.65-1.3,1.3-1.95,1.94-.02.45-.04.9-.07,1.39-.92.96-1.85,1.94-2.76,2.89-.03.5-.05.95-.07,1.35-.47.53-.91,1.03-1.25,1.41v4.16c.71.71,1.36,1.36,2.7,2.01.92.36,1.33.72,1.35,1.09Z"/>
</svg>