<?xml version="1.0" encoding="UTF-8"?>
<svg id="Layer_1" xmlns="http://www.w3.org/2000/svg" version="1.1" viewBox="0 0 250 150">
  <!-- Generator: Adobe Illustrator 29.4.0, SVG Export Plug-In . SVG Version: 2.1.0 Build 152)  -->
  <defs>
    <style>
      .st0 {
        fill: #fff;
      }
    </style>
  </defs>
  <path class="st0" d="M137.69,125.24c.44-1.17,1.56-1.33,2.45-1.4.85-.75,1.54-1.35,2.18-1.92v-1.42c.46-.71,1.14-.72,2.23-.67.68-.87,1.52-1.94,2.19-2.79h1.96c.26-.76.54-1.56.81-2.36,2.12-2.12,4.24-4.23,6.35-6.36.14-.14.19-.38.38-.81v-2.32c1.41-1.41,2.72-2.72,4.03-4.03v-1.34c.46-.51.91-.99,1.33-1.45-.43-.5-.84-.98-1.24-1.45.89-.88,1.7-1.7,2.52-2.52,0-1.19.46-2.16,1.46-2.84.03-.45.06-.9.1-1.4.43-.47.89-.96,1.38-1.48v-1.76c.85-.66,1.93-1.51,2.85-2.23v-4.27c.54-.65.96-1.16,1.27-1.53.05-1.09.09-1.98.13-2.71.48-.48.81-.8,1.22-1.21v-3.99c.48-.55.92-1.05,1.43-1.64v-2.63c.48-.52.95-1.02,1.43-1.53v-8.23c.46-.5.9-.99,1.32-1.44-.47-.54-.92-1.04-1.39-1.59v-2.63c-.92-.85-1.82-1.6-1.06-2.92.82-.81,1.63-1.63,2.48-2.48-.44-.48-.88-.96-1.34-1.46v-5.96c1.24.02,2.57-.26,3.38-1.55h5.47c1.01-.95,1.99-1.89,3-2.85h4.05c.55-.49,1.05-.94,1.51-1.36.3,0,.53.02.76,0,.99-.11,1.16,1.22,2.1,1.18.33-.33.66-.65.99-.98.87-.36,1.79-.16,2.68-.18,1.15-.03,2.31-.05,3.46,0,.88.04,1.81-.27,2.63.26.34.34.67.67.99.99.45.04.89.08,1.39.12.47-.43.97-.88,1.51-1.37h4.1c.48.44.98.9,1.51,1.39h1.27c.55.49,1.05.94,1.59,1.42h2.57c.63.53,1.14.95,1.45,1.22,1.15.12,2.04.22,2.93.31.68,1.39,2.46.87,3.36,1.94.74.88,1.66,1.6,2.4,2.48.24.29.14.85.26,1.26.3,1.03,1.76,1.52,1.38,2.88.44.51.86,1.04,1.33,1.52.48.5,1,.95,1.45,1.38v1.43c.48.53.94,1.02,1.38,1.5-.04.5-.07.94-.1,1.33-.47.55-.91,1.05-1.29,1.5,0,4.49,0,8.86,0,13.24,0,.21-.11.41-.15.55-.31.57-1.15.72-.97,1.53.33.33.66.66,1.05,1.05-.41.47-.81.95-1.28,1.48v2.64c-.96,1.01-1.9,1.99-2.85,2.99v2.69c-.87.87-1.68,1.68-2.5,2.5-.13,1.13-.38,2.2-1.53,2.88v3.04c-.91.71-1.99,1.56-2.85,2.23v2.93c-.81,1.34-2.13,1.97-2.67,3.06-.11,1.08-.19,1.97-.28,2.86-1.64.75-.85,2.95-2.42,3.88-1.16.69-2.03,1.84-2.95,2.71v1.53c-.93,1.03-2.07,1.82-2.65,2.85v2.75c1.78,1.92,1.78,2.03.02,3.93-.04.44-.08.89-.12,1.34.68.78,1.2,1.73,2.31,2.01.34-.34.67-.67,1.07-1.07.47.4.94.8,1.45,1.23.93-.86,1.88-1.76,2.8-2.62.53.44,1,.83,1.33,1.11.8-.69,1.5-1.28,2.14-1.83v-1.44c.31-.49.68-.73,1.15-.67.77.09,1.52-.23,1.53-.9.02-1.04.58-1.61,1.15-2.33.63-.8.4-1.67-.44-2.33-.44,0-.9.05-1.35-.02-.18-.03-.41-.28-.48-.47-.12-.34.12-.73.64-.85,1.06-.24,2.29.44,3.26-.64v-2.71c.95-1,1.89-1.98,2.82-2.96.02-.48.04-.93.06-1.33.47-.53.92-1.03,1.4-1.57v-2.63c1.38-1.38,2.68-2.68,3.99-3.98.03-.45.06-.9.1-1.4.43-.47.89-.96,1.37-1.48v-1.32c.48-.51.94-1.01,1.43-1.52v-2.7c.85-.85,1.67-1.66,2.48-2.48.08-.42.08-.9.27-1.26.3-.58.74-1.09,1.36-1.97,0-1.2-.02-2.79.01-4.38,0-.42.2-.83.3-1.25.33-.33.65-.65.98-.98.03-.45.06-.9.09-1.4.44-.47.9-.97,1.38-1.48v-6.86c-.47-.51-.94-1-1.38-1.48.03-.49.05-.94.07-1.33.43-.51.83-.98,1.19-1.4-.5-.6-.92-1.12-1.22-1.49-.05-1.09-.09-1.98-.13-2.71-.97-.97-1.79-1.78-2.64-2.64v-6.84c-.48-.52-.95-1.01-1.42-1.52v-1.36c-2.44-2.44-4.89-4.89-7.34-7.32-.14-.14-.38-.19-.57-.28-1.75.26-2.17-1.38-3.16-2.2-.08-1.82-.1-1.83-1.99-1.95-.46-.42-.96-.88-1.5-1.36h-3.28c-.58-.79-1.39-1.9-1.98-2.7-1.36-.09-2.27-.13-3.17-.23-.18-.02-.33-.31-.41-.39-.15-.72-.28-1.35-.39-1.87-.38-.17-.57-.34-.76-.34-1.84-.02-3.69-.03-5.53,0-.43,0-.86.13-1.29.21-.33.33-.65.65-.99.98-1.34.35-2.71.12-4.07.17-.19,0-.38-.18-.6-.3-.55-.73-1.24-1.28-2.39-1.02-.42.38-.92.84-1.45,1.32h-12.38c-.51.47-1.01.93-1.54,1.42h-6.8c-.56.5-1.06.95-1.52,1.36q-7.52,0-8.81-.62c-.02-.45-.05-.9-.07-1.39-.45-.48-.91-.97-1.39-1.49v-1.35c-1.31-1.31-2.62-2.61-3.93-3.93-.39-.72.04-1.82-1.1-2.31h-2.6c-.19-.19-.45-.33-.5-.52-.11-.42-.12-.88-.16-1.32-.88-1.35-1.96-2.39-3.68-2.5-.61-1.15-1.97-.9-2.83-1.5-.93-.65-1.66-1.59-2.47-2.41-.16.15-.36.28-.48.46-.12.17-.23.4-.22.59.03.69-.13,1.6-.76,1.54-.71-.07-.65-1.05-.63-1.73-.68-.89-1.35-1.78-2.39-2.26-1.83-.13-3.67.23-5.4-.18-.23-.22-.39-.39-.55-.55-.61-.59-1.23-.53-1.34.19-.1.66.09,1.38-.67,1.85-.46-.42-.95-.85-1.45-1.31h-11.01c-.5.47-1,.93-1.51,1.41h-5.48c-.73,1-1.64,1.57-2.8,1.5-.56.46-1.07.88-1.48,1.22-1.51.09-2.88-.19-4.23.25-.59.69-1.2,1.36-2.06,1.17-1.05,1.05-2.01,2.01-2.73,2.73h-1.84c-.51.48-1.01.94-1.48,1.38-.49.03-.94.05-1.34.08-.54.47-1.04.91-1.58,1.39h-4.01c-.89.89-1.71,1.71-2.61,2.6h-2.62c-.55.48-1.05.92-1.59,1.39-.39.02-.84.05-1.34.08-.47.44-.97.9-1.48,1.38-.44,0-.9,0-1.7.35-.79.97-1.43,1.1-2.31,1.01-1.4,1.34-2.87,2.76-4.36,4.2h-1.32c-1.04.93-1.82,2.09-3.06,2.74-.43.07-.86.14-1.29.22-1.3,1.3-2.61,2.61-3.92,3.92h-1.96c-.56.78-1.37,1.89-1.98,2.73-.87.1-1.31.14-1.76.19-1.79,1.79-3.59,3.58-5.39,5.38h-1.35c-2.95,2.94-5.88,5.87-8.85,8.84-.05.15-.14.35-.18.56q-.35,1.57-2.16,1.75c-.82.81-1.63,1.63-2.7,2.7-1.88-.77-2.35,1.2-3.44,2.24-.04.44.08,1.04-.16,1.3-1.07,1.19-2.24,2.29-3.3,3.35-.8.03-1.52-.14-1.97.6-.03.2-.13.42-.1.62.11.79-.25,1.37-.95,1.51-.66.13-1.35.04-1.81.73v1.36c-3.73,3.72-7.46,7.45-11.06,11.05-.07.67.03,1.22-.2,1.53-.54.74-1.23,1.36-1.81,1.96h-1.47c-.68.45-.74,1.11-.68,2.03-1.34,1.35-2.78,2.79-4.17,4.19-.03.55-.05,1-.08,1.45-.82.81-1.63,1.63-2.45,2.44-.16.62-.33,1.25-.49,1.87-.82.81-1.63,1.63-2.45,2.44-.03.45-.06.9-.06,1.03.35,1.53,1.54.89,1.88,1.1.85.68,1.37,1.09,1.77,1.41h1.57c.23,0,.48-.06.69.01.7.23.98.69,1.02,1.48.06,1.11.16,1.11,1.94,1.28.95-.9,1.94-1.84,2.95-2.79h1.3c.71-.46.73-1.13.67-2.22.87-.68,1.95-1.52,2.8-2.18v-1.8c1.14-1.14,2.29-2.28,3.44-3.44h1.28c1.08-.5.6-1.62,1.05-2.33,3.6-3.6,7.19-7.18,10.81-10.79v-1.26c.54-1.33,2.25-.38,2.81-1.6,0-.43,0-.89,0-.87,5.12-5.11,10-9.98,14.98-14.96.47.03,1.14,0,1.6-.7v-1.24c.5-1.09,1.62-.63,2.32-1.06,3.12-3.11,6.21-6.21,9.31-9.3,1.47-.26,1.72-.35,2.85-1.47.45-.02.9-.04,1.44-.07,1.41-1.39,2.86-2.83,4.15-4.1.71-.1,1.36,0,1.54-.25.74-1,1.82-1.18,3.22-1.45,1.59-1.63,3.36-3.43,5.14-5.26.4-.03.85-.07,1.29-.1.67-1.03,1.67-1.41,2.84-1.46.82-.82,1.64-1.63,2.52-2.51h2.65c.53-.48,1.04-.93,1.59-1.42h1.27c.53-.49,1.03-.95,1.55-1.42h1.34c.23-.39.62-.75.63-1.13.03-1.09.4-1.7,1.58-1.63.21.01.53,0,.63-.12.77-.96,1.68-1.33,2.95-1.29,1.81.05,3.65.24,5.41-.11.37-.37.65-.88,1.03-.98,1.08-.28,2.12-.5,2.88-1.47.19-.24.85-.11,1.1-.14,1.24-1.23,2.37-2.36,3.8-3.8-.07.28,0,.07.03-.14.31-1.58.33-1.61,1.56-1.61.67,0,1.35,0,1.81,0,.65.53,1.12.91,1.57,1.29.43-.43.76-.76,1.29-1.29h4.56c1.61,0,3.23,0,4.84,0,.53,0,.85-.41.96-1.5.05-.48.13-.87.66-1.18.46.4.94.82,1.46,1.28h1.32c.48-.44.98-.9,1.46-1.34h1.37c1.04.92,1.82,2.08,3.05,2.74.43.07,1-.01,1.27.24,1.36,1.25,2.63,2.58,3.95,3.9h2.67c1.07.51.6,1.62,1.05,2.33.83.83,1.65,1.64,2.5,2.49v2.69c.96,1.01,1.9,1.99,2.75,2.89v2.8c-.7.7-1.35,1.35-2.02,2.01h-3.38c-.54.76-1.34,1.89-2.01,2.83-1.05-.1-1.75-.09-2.17.58-.56.91-1.63.55-2.36.99-.56.34-.85,1.18-1.6,1.11-1.11-.1-1.59.72-2.23,1.31-.51.47-.98.97-1.48,1.47h-1.35c-.51.48-1.01.94-1.49,1.39-.49.02-.94.05-1.72.09.16,2.24-2.32.56-3.01,1.94-.02.22-.04.45-.05.67,0,.23.02.46,0,.69-.07.65.32,1.51-.45,1.86-.74.33-.95-.63-1.49-.93-.3.2-.7.36-.92.65-.5.67-1.19.55-1.9.57-.47.44-.97.9-1.49,1.38h-1.34c-1.18.56-.22,2.28-1.51,2.77-.45.03-.9.05-1.35.08-.82.81-1.63,1.63-2.45,2.44-.62.16-1.25.33-1.87.49-1.96,1.95-3.91,3.91-5.87,5.86-.04.44-.08.89-.13,1.47-.77.64-1.29,1.69-2.27,2.06-1.04.05-1.93.09-2.67.13-1.2,1.34-2.54,2.27-3.36,3.67.07.72-.07,1.34-.72,1.78h-1.52c-.26.76-.54,1.56-.81,2.36-1.47,1.47-2.94,2.93-4.4,4.4-.44.05-.88.1-1.09.12-2.23,2.23-4.34,4.33-6.66,6.65v.98c-1.8,1.77-3.6,3.55-5.37,5.3-.07.5-.12.93-.18,1.37-.1.19-.17.41-.32.56-2.11,2.12-4.23,4.24-6.35,6.36-.16.62-.33,1.25-.49,1.87-.82.81-1.63,1.63-2.49,2.48v2.76c-1.43,1.43-2.87,2.88-4.28,4.29v2.58c-.54.75-1.22,1.29-1.24,1.83-.02,1.08-.66,1.62-1.37,2.32v2.63c-.48.54-.92,1.05-1.43,1.62v4.1c.41.44.87.93,1.34,1.44v1.33c-.48.52-.94,1.02-1.33,1.44v2.72c.51.59.95,1.09,1.43,1.64v2.17c1.32,1.55,2.35,2.78,3.19,3.77.82.08,1.26.13,1.62.17.56.47,1.07.9,1.63,1.36h2.39c.8.36.91,1.3,1.74.98.34-.34.66-.66,1.04-1.03.48.43.96.85,1.47,1.31h5.48c.49-.45.98-.92,1.44-1.34h2.71c.54.46,1.02.87,1.49,1.28.88-.88,1.7-1.7,2.51-2.51,1.37-.71,2.08.29,2.91,1.15.97-.91,1.94-1.82,2.9-2.72.47-.02.92-.05,1.37-.07,1.19-.44-.08-2.31,1.47-2.54.82.81,1.63,1.63,2.53,2.53.46-.39.94-.79,1.48-1.24.96-.34,2.18.39,3.16-.45.28-.81.55-1.61.81-2.37h2.91c.51-.48,1.01-.94,1.53-1.42h2.64c.58-.51,1.08-.95,1.62-1.42h2.63c.89-.89,1.71-1.71,2.52-2.52.21-.05.42-.16.62-.15,1.1.05,1.7-.4,1.62-1.56-.04-.48.16-.85.68-1.17h2.67c1-.95,1.99-1.89,2.95-2.8.5-.03.95-.06,1.55-.1ZM130.81,115.55h-2.72c-1.75,1.23-2.93,2.95-4.59,4.27h-1.29c-.23.37-.5.72-.67,1.11-.16.39-.14.87-.33,1.24-.22.43-.68.47-1.2.42-.67-.07-1.35-.02-1.93-.02-.76.67-1.23,1.57-2.34,1.39-.19-.03-.53.04-.6.17-.71,1.37-2.48.88-3.36,1.94-.15.18-.32.33-.56.57h-2.77c-.93.92-1.89,1.88-3.19,3.19-.82.84-1.28,1.33-1.73,1.8,0,.28-.03.51,0,.74.07.5-.09.98-.58,1.09-.2.05-.71-.44-.77-.75-.13-.65.07-1.39-.9-1.82h-1.17c-.47.44-.97.9-1.49,1.37h-5.46c-.53.49-1.03.94-1.5,1.37-.73,0-1.4-.08-1.9.58-.26.34-.69.54-1.04.8-.69,0-1.38,0-2.07,0-.21.06-.47.06-.61.19-.65.61-1.19,1.41-2.34,1.16-.98-.47-1.66-1.35-2.27-2.16v-11.01c.87-.87,1.69-1.69,2.51-2.51.38-1.33.12-2.69.2-4.05.03-.56.52-.88,1.49-.99.22-.02.44-.05.66-.07.65-.65,1.3-1.3,1.98-1.98v-2.62c2.33-2.33,4.61-4.59,6.79-6.76.07-.62.11-1.06.21-1.94.8-.63,1.88-1.47,2.73-2.15v-1.73c.48-.52.94-1.02,1.37-1.49.09-1.87.11-1.89,1.76-1.98,3.01-3,5.93-5.92,9.16-9.15.12-.33.39-1.13.66-1.9h1.32c4.98-4.97,9.85-9.84,14.79-14.77.02-.33.05-.77.07-1.22.28-.45.65-.65,1.13-.61,1.16.09,1.62-.5,1.56-1.61-.02-.46.21-.83.64-1.11.49.43.98.87,1.47,1.3.81-.81,1.63-1.63,2.44-2.44,1.1-.88,2.77.42,3.75-.94v-1.44c.65-.62,1.31-1.26,2.03-1.96,1.09,0,2.14-.3,2.63-1.46h1.48c1.48-1.43,2.95-2.85,4.4-4.27h2.69c.9-.9,1.72-1.72,2.61-2.6h2.94c.91-1.1,1.93-2.32,2.95-3.55.64-.46,0-1.62,1.24-1.92.61.61,1.26,1.26,1.93,1.92v1.33c.48.52.94,1.02,1.38,1.49v1.32c-.49.55-.95,1.05-1.42,1.57v5.41c-1.82,1.97-1.82,2.09-.04,4-.36.45-.74.91-1.22,1.49v2.56c-.48.53-.93,1.03-1.42,1.59v2.65c-.48.52-.95,1.01-1.42,1.52v1.32c-.48.53-.94,1.02-1.42,1.54v4.06c-.86.86-1.68,1.67-2.64,2.63-.03.74-.07,1.62-.12,2.71-.31.38-.73.89-1.27,1.53v2.53c-.47.54-.92,1.04-1.39,1.58-.02.4-.05.85-.08,1.34-.91.96-1.85,1.94-2.76,2.89-.03.5-.06.95-.08,1.4-1.09,1.1-1.18,1.37-1.46,2.84-1.79,1.79-3.58,3.58-5.38,5.37v1.39c-.65.64-1.3,1.28-1.99,1.96-1,.15-2.33-.03-2.17,1.7.02.2-.05.44-.15.62-.11.19-.31.33-.5.52h-1.37c-1.75,1.8-3.51,3.61-5.29,5.45Z"/>
</svg>