<?xml version="1.0" encoding="UTF-8"?>
<svg id="Layer_1" xmlns="http://www.w3.org/2000/svg" version="1.1" viewBox="0 0 450 150">
  <!-- Generator: Adobe Illustrator 29.4.0, SVG Export Plug-In . SVG Version: 2.1.0 Build 152)  -->
  <defs>
    <style>
      .st0 {
        fill: #fff;
      }
    </style>
  </defs>
  <path class="st0" d="M213.18,112.94c.4.02.85.05,1.34.08.48-.45.98-.91,1.49-1.39h1.35c1.14-1.14,2.29-2.28,3.44-3.44v-12.43c-.14-.15-.26-.37-.45-.48-.74-.42-1.71-.15-2.38-.96-1.03-1.23-2.24-2.32-3.34-3.44-.7.1-1.47-.27-1.93.54-.06.41-.15.85-.18,1.28-.03.46.09.95-.03,1.38-.2.71-.71.96-1.5,1-1.14.06-1.14.16-1.25,1.95-.42.46-.88.96-1.34,1.46.44.48.89.98,1.35,1.48-.05.65.2,1.4-.56,1.84-1.94-1.5-2.03-1.72-2.44-3.53-.82-.81-1.63-1.63-2.49-2.49v-4.08c-.95-1-1.89-1.98-2.78-2.92v-4.17c1.59-.59.91-2.49,2.02-3.37h4.07c.52-.48,1.02-.93,1.5-1.36.48.43.96.85,1.46,1.29.7-1.84,3.16-.79,3.86-2.52.62-.16,1.25-.33,1.87-.49.82-.81,1.63-1.63,2.59-2.59,1.85.51,3.93-.4,5.83.39.53,1.25.21,2.4.29,3.51.1,1.35-.21,2.72.23,4.03.83.83,1.64,1.64,2.5,2.49v2.69c.48.52.95,1.01,1.43,1.53v2.71c.48.51.94,1.01,1.38,1.48.03.5.06.95.08,1.34.47.54.91,1.04,1.39,1.59v8.05c.54.66.96,1.17,1.26,1.54.05,1.1.1,1.99.13,2.74.8.76,1.46,1.39,2.09,1.98,1.51-.55,1.92,1.07,2.97,1.35,1.61,0,3.23.04,4.84-.03.37-.02.73-.44,1.08-.67v-2.93c-.76-.26-1.67-.39-2.34-.86-.66-.47-1.42-1-1.64-1.88.3-.54,1.13-.7.96-1.5-.33-.33-.66-.66-.98-.98.25-1.53,2.11-.28,2.62-1.63-1.13-1.01-2.31-2.07-3.88-3.47-.17-.07-1.29.53-1.47-.69.45-.56.86-1.07,1.21-1.5-.11-1.5.22-2.87-.28-4.19-.33-.33-.65-.65-.98-.98-.05-.44-.09-.88-.15-1.39.42-.47.87-.97,1.33-1.49-.43-.47-.88-.95-1.34-1.46v-4.09c-.51-1.2-2.28-.1-2.64-1.5.88-1.02,2.1-1.75,2.66-3.05-.25-1.2-.23-1.21-1.26-2.24-.04-.21-.1-.42-.12-.64-.02-.23,0-.46,0-.69q-.03-2,2.23-2.41c.82-.81,1.63-1.63,2.53-2.52.46.39.94.79,1.49,1.26h4.1c.42-.4.92-.87,2.1-1.34,3.92,0,7.15,0,10.38,0,.65-.65,1.3-1.3,2.01-2.01-.42-.47-.84-.95-1.3-1.48v-1.23c-.5-1.09-1.63-.6-2.34-1.08-.18-.12-.3-.33-.44-.5-.06-.66.22-1.4-.69-1.93h-2.56c-.54-.48-1.05-.92-1.58-1.39-.46.42-.94.86-1.44,1.31h-2.71c-.52-.48-1.02-.94-1.44-1.33h-2.72c-.59.51-1.1.95-1.55,1.34-2.64,0-5.18.03-7.71-.03-.37,0-.74-.41-1.12-.64v-1.35c-.48-.52-.94-1.02-1.42-1.54v-12.32c-.5-.55-.95-1.06-1.36-1.52.15-1.8.16-1.79,1.29-1.96,1.06-.15,1.43-.41,1.48-1,.08-.89-.19-1.81.21-2.67.33-.33.66-.66,1.01-1-.21-.32-.35-.72-.64-.94-.66-.5-.57-1.17-.58-1.69-1.21-1.21-2.34-2.34-3.69-3.69h-2.34c-.54-.48-1.04-.93-1.57-1.4-.6,0-1.31-.32-1.85.42-.47,1.28-.13,2.65-.25,3.99-.02.2-.14.4-.22.6-.82.81-1.63,1.63-2.49,2.49v2.68c-.48.52-.94,1.02-1.4,1.52.45.48.91.98,1.39,1.49v13.69c.47.54.87,1.02,1.23,1.44-.49.6-.92,1.11-1.3,1.58.05.99.09,1.89.12,2.62.48.48.8.8,1.16,1.15-.76,1.37-2.08,2.25-3.12,3.38-.13.14-.39.15-.6.22-1.61,0-3.23,0-4.84,0-.55,0-.92.51-.97,1.49-.02.49-.12.88-.8,1.27-1.15,0-2.52-.06-3.88.04-.31.02-.78.54-.84.88-.12.66-.02,1.36-.8,1.86-.57-.66-1.16-1.34-2.01-2.32,0-1.2.07-2.79-.02-4.38-.09-1.8.35-3.63-.2-5.29-.43-.43-.75-.75-1.12-1.11.44-.48.88-.96,1.34-1.46,0-1.35,0-2.73,0-4.11-.65-.65-1.3-1.3-1.96-1.96-.44-.04-.89-.08-1.42-.13-.93-.89-1.92-1.82-2.93-2.78h-1.27c-.53-.46-1.01-.88-1.48-1.29-.39.39-.66.83-1.05,1.01-.57.27-1.34.2-1.84.55-.73.51-1.3,1.26-1.88,1.86-.04.55-.07,1-.1,1.45-1.01.68-1.46,1.65-1.46,2.84-.33.33-.66.66-1.21,1.21,0,3.42,0,7.08,0,10.73,0,.66.09,1.32.13,1.85.44.44.77.77,1.17,1.17-.4.47-.81.94-1.24,1.45-.02.4-.04.85-.06,1.33.45.48.92.98,1.39,1.49v5.46c.46.51.89.99,1.29,1.44-.48.56-.92,1.06-1.29,1.49-.11,1.94.18,3.77-.15,5.54-.36.36-.69.69-1.08,1.08-.11,1.02-.23,2.11-.34,3.11-.41.41-.74.74-1.13,1.13v2.76c-1.1,1.1-2.22,2.23-3.37,3.34-.06.06-.31-.07-.48-.12-.33-.33-.65-.65-.98-.98q-1.9-.22-2.36-2.36c-.82-.81-1.63-1.63-2.51-2.51v-5.41c-.48-.53-.93-1.04-1.43-1.59v-2.65c-.49-.53-.95-1.03-1.39-1.51v-1.33c.49-.54.94-1.04,1.37-1.51-.04-.5-.08-.95-.12-1.39-.88-1.02-2.1-1.74-2.48-2.64-.46-1.55.53-1.99,1.14-2.72-.41-.47-.83-.94-1.29-1.47v-6.88c-1.63-1.58-3.28-3.19-4.98-4.84h-5.43c-1.14,1.14-2.29,2.28-3.43,3.42.45.5.9.99,1.3,1.43,0,1.43.02,2.81-.02,4.18,0,.17-.3.33-.47.49-.21.05-.42.12-.63.15-.23.03-.46,0-.69,0-2.04.03-2.07,0-2.42-2.16-.67-.69-1.31-1.35-1.94-2h-1.41c-.23-.37-.63-.73-.64-1.11-.03-.73-.2-1.29-.97-1.7h-3.9c-.59-.51-1.1-.95-1.33-1.15-1.68-.41-3.06.06-4.32-.34-.58-.32-.73-1.16-1.54-.98-.33.33-.66.66-1.06,1.05h-5.15c-1.77,1.78-3.38,3.4-5.24,5.26,0,0-.03.45-.07.95-.43.46-.89.96-1.37,1.49v1.32c-.48.51-.94,1.01-1.43,1.52v2.7c-.69.69-1.34,1.34-2.09,2.09-.58-.69-1.16-1.37-1.98-2.34-.17-.57.19-2.03-1.59-1.85-.48.05-.86-.15-1.13-.6-.55-.91-1.56-.69-2.34-.95-1.33-1.33-2.63-2.63-3.96-3.95h-2.75c-.48.44-.98.9-1.5,1.38h-5.48c-.84.83-1.64,1.66-2.48,2.45-.1.09-.36.13-.47.07-.19-.1-.46-.3-.47-.48-.05-.92-.02-1.84-.02-2.72-.46-.5-.9-.99-1.31-1.44.43-.52.83-.99,1.19-1.41-.35-.62-1.17-.78-1.02-1.58.33-.33.66-.66,1.06-1.05-.4-.47-.8-.94-1.24-1.45-.02-.39-.04-.85-.07-1.32-.45-.48-.9-.97-1.35-1.45.43-.48.86-.96,1.26-1.41-.43-.52-.83-.99-1.21-1.45.42-.42.74-.74,1.07-1.07.07-.2.21-.4.21-.6.01-3.92.01-7.83,0-11.75,0-.19-.16-.39-.25-.58-.33-.33-.65-.65-1.05-1.05v-2.8c.33-.38.78-.88,1.25-1.41.02-.4.04-.86.06-1.23-2.15-2.14-4.25-4.25-6.33-6.32-1.83,0-3.66-.01-5.5.02-.17,0-.33.3-.62.6,0,5.83,0,11.8.01,17.78,0,.18.22.36.33.55.33.33.65.65.98.98-.43.49-.87.98-1.29,1.45.46.5.92,1,1.29,1.41v2.71c-.47.57-.86,1.04-1.24,1.49.43.43.75.75,1.17,1.17.04.57.1,1.23.11,1.89.02,1.15,0,2.3,0,3.45,0,.54.42.83,1.49.99,1.13.17,1.14.17,1.29,1.96-.42.47-.87.97-1.37,1.52v13.76c.43.47.88.97,1.24,1.37-.69,1.22-2.05,1.82-2.34,2.45-.56,2.01-.03,3.39-.51,4.72-.82.82-1.63,1.63-2.51,2.51v4.03c-.48.53-.93,1.03-1.43,1.58v2.66c-.48.52-.94,1.02-1.43,1.54v1.28c-.49.55-.95,1.05-1.3,1.44v5.55c.22.22.37.49.56.53.44.09.92,0,1.34.12.52.16.7.52.61.88-.82.81-1.63,1.63-2.5,2.5v4.17c.36.4.82.9,1.33,1.46,0,3.15,0,6.37.02,9.59,0,.17.28.34.58.66,1.4.05,2.95.11,4.33.16.98.98,1.8,1.79,2.61,2.61.45.02.9.05,1.39.08.48.44.97.91,1.48,1.38h4.13c1.15-1.14,2.29-2.28,3.44-3.44v-2.77c3.73-3.72,7.46-7.45,11.08-11.07.06-1.93.16-2.16,1.32-2.06.53.05,1.02.02,1.18-.46.26-.78-.64-.95-.95-1.52.36-.9,1.59-1.45,1.28-2.76-.04-.19.57-.72.93-.77.69-.09,1.35-.09,1.79-.74v-1.34c.48-.51.94-1.01,1.43-1.53v-2.69c.69-.69,1.34-1.34,2.02-2.01h1.35c1.01.46.55,1.57,1.34,2.89,1.33,1.3,3.13,3.06,4.95,4.84.08,1.8.09,1.81,1.98,1.93.46.42.96.87,1.5,1.36h4.07c.52.48,1.02.94,1.55,1.42h2.65c.55.49,1.05.95,1.59,1.42h5.34c.63.53,1.14.95,1.44,1.21h2.71c.71-.56,1.23-.96,1.63-1.28.66,0,1.12.01,1.58,0,1.32-.05,1.64-.33,1.66-1.51,0-.68,0-1.36,0-1.88.37-.61.74-.79,1.23-.75,1.19.1,1.54-.55,1.57-1.63.01-.38.41-.74.63-1.1.64-.14,1.41.25,1.45.19,1.16-1.83,0-3.43,1.4-4.44,1.12-.8.41-2.74,2-3.33v-4.1c.48-.52.94-1.01,1.38-1.49-.43-.48-.86-.96-1.28-1.43.31-.51.69-.64,1.17-.66.8-.03,1.49.38,1.52.97.03.69-.07,1.39.04,2.07.06.39.42.74.64,1.1.64.13,1.41-.26,1.93.59.37.77.03,1.7.21,2.57.07.37.49.68.75,1.01.45.02.91.04,1.36.06.65.65,1.3,1.3,1.99,1.98v1.31c.49.53.95,1.03,1.41,1.53q.02,1.12.52,1.86c1.51.49,3.15-.21,4.64.49.82.81,1.63,1.63,2.45,2.45h4.13c.5-.47,1-.93,1.51-1.41h4.08c2.32-2.32,4.6-4.6,6.87-6.86.99.5.46,1.64.97,2.32.83.83,1.65,1.65,2.48,2.48v2.69c.43.69,1.08.68,1.74.84.6.14,1.09.72,1.83,1.25h6.61c.54.48,1.05.92,1.58,1.39ZM112.83,80.2c-.45,1.32-1.94,1.8-2.7,3.5v3.69c.35.39.8.89,1.27,1.41-.43.46-.88.95-1.33,1.45v3.15c-.85.66-1.92,1.5-2.84,2.21v3c-1.18.67-1.35,1.78-1.53,2.87-.82.82-1.63,1.63-2.44,2.44-.03.44-.07.89-.12,1.62-.54.43-1.26.99-2.1,1.64-.82-.23-1.36-1.16-2.03-1.95-.04-.45-.08-.89-.12-1.33-1.75-1.9-1.76-2.03,0-3.93v-2.82c-.24-.29-.67-.8-1.16-1.4.36-.42.76-.89,1.23-1.44v-4.01c.47-.51.94-1.01,1.42-1.52v-2.76c1.13-1.1,2.28-2.22,3.46-3.37.38-.02.83-.04,1.32-.07.46-.44.96-.91,1.79-1.73.81-.84,1.28-1.33,1.73-1.79.03-.5.05-.94.07-1.39q.6-.56,1.98.74h1.27c.7.42.93.99.82,1.78ZM151.6,94.35c-.95.95-1.76,1.76-2.58,2.58-.35,1.34-.12,2.71-.2,4.19-.37.43-.8.94-1.32,1.55v2.54c-.37.33-.67.85-.99.86-1.82.08-3.64.04-5.29.04-.49-.49-.76-.98-1.15-1.11-1.04-.35-2.19-.42-2.84-1.49-1.17-.05-2.16-.48-2.85-1.46-1.89.32-2.18-.95-2.38-2.35-.03-.18-.31-.33-.82-.84-.82-.84-1.28-1.33-1.69-1.76v-2.78c.37-.37.69-.69,1.1-1.09.69-1.88-.11-3.96.41-5.93.81-.81,1.63-1.63,2.53-2.52v-2.97c.92-.72,2.01-1.56,2.85-2.21v-1.78c.48-.51.94-1.01,1.39-1.48.03-.49.05-.94.07-1.39,1.56-.58.87-2.48,1.99-3.36h6.87c1.02.44.53,1.57,1,2.27.36.54,1.19.85,1.12,1.6-.1,1.11.73,1.58,1.36,2.29v2.67c.48.52.94,1.02,1.42,1.55v1.33c-.44.48-.89.97-1.33,1.45.35.35.67.67,1,1,.12.18.33.36.33.55.02,2.74.01,5.49.01,8.09Z"/>
  <path class="st0" d="M280.97,103.28c-.02.17.24.27,0,0h0Z"/>
  <path class="st0" d="M407.76,83.36c-.02-.45-.05-.9-.07-1.34-.38-.67-1.03-.67-1.68-.86-.8-.23-1.47-.89-2.22-1.31-.17-.1-.45-.01-.68-.01-1.27.92-2.62,1.78-2.52,3.64-1.65.74-.79,3.06-2.42,3.87-.21.11-.12.84-.22,1.73-.79.62-1.87,1.46-2.73,2.13v1.77c-.66.66-1.32,1.31-1.97,1.97-.45.03-.9.06-1.2.09-2.35,2.35-4.63,4.62-6.77,6.76-1.48-.03-2.43.46-3.14,1.5h-2.71c-.52.48-1.02.95-1.53,1.42h-1.77c-.66.84-1.51,1.92-2.1,2.69h-10.01c-1.96-1.8-2.05-1.8-4,0-.46-.39-.93-.79-1.45-1.22q-1.75-.17-2.1-1.75c-.05-.21-.13-.4-.2-.61-.82-.81-1.63-1.63-2.5-2.5v-8.19c-.48-.53-.93-1.03-1.39-1.53.43-.48.88-.97,1.36-1.49v-4.08c.35-.35.67-.68,1-1,.56-.53.18-1.31.51-1.86.34-.57.82-1.05,1.24-1.56-.25-1.74,1.37-2.17,2.2-3.15.46-.03.91-.06,1.35-.09.78-.81,1.48-1.82,2.86-1.11.81.81,1.63,1.62,2.51,2.51.47-.4.94-.81,1.49-1.27h2.64c.52-.48,1.02-.95,1.53-1.42h4.11c1.19-.52.11-2.26,1.44-2.64.49.41.96.8,1.45,1.21.67-1.28,1.86-1.3,2.9-1.58.82-.82,1.64-1.64,2.48-2.48h1.43c1.06-1.13,2.16-2.31,3.36-3.58.02-.26.05-.7.08-1.22.9-.95,1.84-1.93,2.76-2.9.03-.49.05-.94.08-1.38.57-.67,1.48-1.11,1.32-2.23-.13-.95,1.26-1.12,1.14-2.08-.34-.34-.66-.66-1.07-1.07.39-.46.79-.94,1.26-1.49v-4.01c.48-.52.95-1.01,1.43-1.53,0-2.74,0-5.5,0-8.27-3.42-3.42-6.85-6.84-10.28-10.26-.44-.04-.88-.07-1.39-.11-.47.43-.97.89-1.48,1.35-1.18-.52-.22-2.22-1.34-2.67-2.43,0-4.73-.01-7.03.02-.17,0-.33.3-.64.62,0,.75.02,1.65,0,2.55-.02.55-.93.98-1.57.92-.79-.08-1.09-.74-1.62-1.13-.51-.38-1.54-.41-1.86-.05-1.09,1.16-2.38,2.13-3.24,3.47-.2,1.08.49,2.33-.69,3.21h-1.3c-1.06.51-.49,1.7-1.07,2.33-.63.68-1.14,1.27-1.16,2.32-.01.67-.76,1-1.53.9-.46-.06-.84.18-1.15.67v1.29c-.49.52-.95,1.02-1.43,1.53v1.35c-.92,1.02-2.06,1.82-2.85,3.18v2.43c-.91.91-1.73,1.72-2.54,2.54.13,1.26-.53,2.12-1.49,2.86v2.7c-.49.53-.95,1.03-1.43,1.54v1.34c-.67.67-1.32,1.32-1.97,1.97-1.34-.43-.3-2.15-1.47-2.68h-1.37c-.61-.72-.58-1.26.1-1.37.65-.1,1.39.15,1.88-.66-.4-.45-.82-.93-1.28-1.46v-1.32c.44-.48.9-.98,1.34-1.45v-8.28c-.93-1.03-2.07-1.82-2.85-3.22v-2.39c-1.78-1.92-1.77-2.03.04-3.99-.42-.47-.84-.95-1.32-1.49,0-2.22.03-4.52-.05-6.81,0-.26-.62-.64-1.01-.72-.87-.18-1.81.19-2.65-.27-.34-.33-.66-.66-1.07-1.06h-2.63c-.54-.48-1.05-.92-1.62-1.42h-2.72c-.44.41-.93.87-1.45,1.35h-2.71c-.52.48-1.02.94-1.48,1.37-.5.03-.95.06-1.4.09-1.96,1.95-3.92,3.91-5.86,5.87-.14.14-.19.38-.38.81v2.32c-1.09,1.09-2.06,2.07-3.05,3.04-.31.3-.65.16-.98-.38v-3.95c-.4-.89-1.08-.84-1.77-.91-.92-.09-1.18-1.42-2.2-1.35-1.76.12-1.51-1.22-1.69-2.11-.71-.75-1.34-1.42-1.95-2.06h-1.38c-.53-.49-1.03-.94-1.56-1.42h-2.67c-.38-.38-.68-.74-1.04-1.02-.58-.47-1.27-.43-1.85-.09-.56.33-1.02.83-1.36,1.12-1.13.06-2.01.11-2.71.14-2.14,2.13-4.09,4.09-6.09,6.08v2.69c-.48.52-.95,1.02-1.43,1.53v1.77c-.84.66-1.92,1.5-2.71,2.12-.11.9-.17,1.34-.21,1.68-.47.57-.89,1.09-1.22,1.49-.1,1.52.2,2.89-.26,4.21-.33.33-.65.65-1.14,1.14,0,1.43-.03,3.02.02,4.61.01.51-.02.92-.34,1.25-.33.33-.65.65-.98.98-.03.45-.05.9-.08,1.39-.44.47-.91.97-1.38,1.48v5.47c-.48.51-.94,1.01-1.34,1.44v4.16c.21.21.39.35.53.53.23.31.65.69.6.96-.1.51-.61.67-1.12.53-.53-.14-.92,0-1.34.7-.28,2.66.1,5.62-.2,8.39-.47.47-.79.79-1.27,1.27.91.93,1.86,1.84,2.76,2.78v1.37c-.52,1.18-2.26.13-2.67,1.48,1.01.68,1.46,1.65,1.46,2.84,1.47,1.47,2.94,2.94,4.41,4.39.14.14.38.18.59.28,1.07-.23,1.61.56,2.25,1.19.06.06.09.09.12.13.01-.08.09-.18.37-.25.33-.33.65-.65.98-.98.45-.03.89-.07,1.48-.11.61-.8,1.71-1.29,2.08-2.4-.04-1.38.28-2.84-1.39-3.74,0-3.13,0-6.34.01-9.54,0-.18.22-.36.33-.55.33-.33.65-.65.99-.99-.45-.49-.89-.98-1.33-1.45v-1.33c.49-.53.94-1.03,1.43-1.56v-2.6c.52-.61.95-1.11,1.33-1.55,0-2.65,0-5.18,0-7.72,0-.2.12-.41.18-.61.82-.81,1.63-1.63,2.45-2.44-.3-1.47-2.12-.29-2.59-1.47.5-1.24,2.2-.27,2.74-1.52v-4.08c.92-1.03,2.07-1.82,2.85-3.21v-2.41c.91-.91,1.73-1.73,2.67-2.67,0-1.7-.04-3.53.04-5.35.01-.3.59-.85.87-.82,1.06.09,1.64-.54,2.32-1.16.28-.25.83-.19,1.27-.28,1.43.76,2.4,2.07,3.48,3.21.39.41.36,1.21.52,1.84.82.81,1.63,1.63,2.45,2.44-.27.27-.52.73-.82.77-.68.09-1.36.04-1.79.7.43.48.86.97,1.27,1.44-.42.48-.83.96-1.27,1.46,1.13.74,1.51,1.72,1.36,2.96-.05.42.12.86.2,1.29,1.66,1.79,1.66,1.91-.15,3.87.42.48.85.95,1.28,1.44-.44.48-.89.97-1.37,1.5v8.21c-.84.84-1.67,1.65-2.46,2.48-.09.09-.04.32-.05.48.33.33.65.65.98.98.2,1.09.4,2.18-.12,3.24-.34.34-.66.66-1.04,1.04v8.31c.38.42.84.91,1.3,1.41-.43.47-.86.95-1.28,1.41.43.5.84.97,1.24,1.44-.23.23-.41.39-.56.56-1.07,1.27-1.06,1.58-.03,2.85.27.33.45.73.67,1.1,0,.46-.01.93,0,1.39.04,1.28.34,1.59,1.54,1.63.68.02,1.35,0,1.99,0,.71,1.87,3.18.83,3.87,2.55,1.03-.15,1.51-1.56,2.81-1.22.2.05.61-.53.84-.88.11-.16.02-.45.02-.68,0-.46.23-.81.64-1.12.59-.43.81-1.02.75-1.76-.07-.88,1.42-1,1.1-2.01-.37-.37-.7-.69-1.06-1.05.44-.48.88-.96,1.34-1.46v-12.38c.46-.5.9-.98,1.31-1.44-.48-.55-.92-1.05-1.23-1.41v-9.62c.54-.66.96-1.17,1.29-1.58.1-1.52-.21-2.89.26-4.21.33-.33.65-.65,1.14-1.14,0-2.12-.07-4.41.04-6.68.03-.69.74-1.03,1.52-.92.47.07.85-.16,1.13-.61.03-.45.05-.9.08-1.39.44-.47.9-.97,1.35-1.45-.43-.47-.87-.96-1.3-1.43,1.83-1.83,3.63-3.62,5.34-5.33.15-.72.28-1.35.39-1.89,1.26-.5,2.35-.42,3.46-.11.59.62,1.19,1.25,1.76,1.85-.45.54-.84,1.01-1.22,1.47,1.79,1.93,1.79,2.03-.02,4v2.79c.34.38.79.88,1.29,1.44v11.01c-.43.45-.89.95-1.37,1.46v8.23c-.48.53-.94,1.03-1.38,1.5.04.5.07.94.11,1.39.82.78,1.81,1.49,1.09,2.85-.81.81-1.63,1.62-2.44,2.44-.49,1.51.34,3.16-.49,4.63-.33.33-.65.65-1.01,1v4.08c-.96,1.01-1.9,1.99-2.85,2.99v2.62c-.52.61-.95,1.11-1.44,1.69.36,1.33-.16,2.71.17,3.64.84.99,1.43,1.69,1.95,2.29.63-.03,1.08-.06,1.48-.08.54-.47,1.04-.91,1.51-1.32.52.06.96.11,1.4.16.82.81,1.63,1.63,2.45,2.44.44.06.91.24,1.31.14.71-.19,1.06-.74.94-1.52-.07-.48.18-.82.6-1.14.57-.43.67-1.05.84-1.73.2-.8.86-1.48,1.32-2.21.11-1.34-.25-2.72.3-4.08.62-.58,1.28-1.2,1.85-1.73.85-.05,1.52-.02,1.98.68v4.07c.47.52.91,1.01,1.34,1.48-.42.48-.84.96-1.24,1.42.7.72,1.35,1.37,1.99,2.02h2.78c.66.65,1.31,1.31,1.96,1.96.04.45.08.89.11,1.34,1.64,1.58,3.3,3.17,5.14,4.94.09,0,.54.03,1.02.05.48.45.98.91,1.49,1.39h2.7c.52.48,1.02.94,1.55,1.42h2.68c.82.86,1.53,1.86,2.67,1.27.71-.57,1.22-.99,1.65-1.33,1.5.11,2.88-.22,4.2.27.33.33.65.65,1.05,1.04.47-.4.95-.81,1.49-1.28h2.63c1-.93,1.97-1.84,2.93-2.74.22.22.48.36.52.55.1.43.01.91.14,1.33.15.52.51.71.86.64.82-.81,1.63-1.63,2.51-2.51h2.77c1.42-1.41,2.86-2.85,4.23-4.22.84,0,1.51.07,1.99-.6.82-1.14,2.65-.57,3.34-1.96.62-.16,1.25-.33,1.87-.49.99-1.13,2.32-1.97,3.04-3.31-.43-.43-.76-.76-1.11-1.11.24-.28.47-.76.74-.79.89-.1,1.81-.04,2.56-.04.8-.78,1.45-1.43,2.11-2.07v-1.83c.84-.65,1.93-1.49,2.85-2.21v-4.25c.54-.67.96-1.18,1.34-1.64-.05-1-.09-1.89-.13-2.61-.98-.98-1.8-1.79-2.61-2.61ZM362.01,65.36c.52-.57.97-1.07,1.44-1.6v-2.65c.87-.87,1.69-1.68,2.5-2.5.07-.43.14-.86.21-1.29.66-1.22,1.81-2,2.74-3.04v-1.31c.48-.52.95-1.01,1.42-1.52v-1.35c.82-.82,1.64-1.63,2.45-2.44.16-.62.33-1.25.33-1.28,1.38-1.61,2.41-2.83,3.3-3.88,1,.02,1.57-.06,2.16-.58,1.27-1.13,1.32-1.07,3.17.24.51.51.7.65.82.84.11.17.2.4.2.6.01,2.99.01,5.97,0,8.96,0,.19-.16.39-.25.58-.33.32-.65.65-1.05,1.05v2.36c-1.78,1.77-3.4,3.38-5.28,5.24.03,0-.41.04-.95.08-.93.88-1.91,1.82-2.91,2.77h-1.31c-.69.46-.63,1.14-.74,1.81-.05.35-.59.93-.8.89-1.38-.27-1.92.99-3.03,1.52h-2.45c-.42.42-.74.74-1.07,1.07-.34.14-.84-.03-.88-.55-.11-1.36-.04-2.74-.04-4.02Z"/>
  <path class="st0" d="M73.82,116.69c.45-.53.4-1.25,0-1.84-.25-.37-.64-.66-.96-.99-.52-1.98.27-4.06-.41-5.94-.4-.4-.72-.72-1.09-1.09v-5.45c-.48-.52-.95-1.01-1.42-1.53v-8.24c-.48-.51-.94-1.01-1.35-1.44v-6.88c.48-.75,1.17-.7,1.85-.69,1.37-.87,2.31-2,2.54-3.69.05-.36.61-.66.97-1.01-.37-.93-1.6-1.48-1.29-2.79.04-.19-.58-.74-.92-.77-1.14-.1-2.31.02-3.45-.07-.38-.03-.74-.42-1.11-.65v-1.35c-.48-.51-.94-1.01-1.39-1.49.02-.48.05-.93.07-1.39.33-.33.67-.64.97-.98.11-.12.13-.32.19-.48-.33-.33-.65-.65-1.12-1.12-.31-2.77.07-5.73-.21-8.5-.46-.46-.79-.78-1.12-1.11,0-1.19-.45-2.16-1.46-2.84-.03-.45-.06-.9-.1-1.39.44-.47.9-.97,1.38-1.49v-2.72c-.46-.5-.93-.99-1.41-1.51v-6.8c-.5-.56-.95-1.07-1.42-1.6v-2.55c-.53-.64-.96-1.15-1.31-1.58,0-2.21,0-4.28,0-6.36,0-.2-.14-.4-.21-.6-.33-.33-.65-.65-1-1-.13-1.06-.25-2.15-.37-3.13-.42-.42-.74-.74-1.07-1.07-.03-.45-.07-.89-.12-1.62-1.04-.91-2.24-1.97-3.69-3.25h-2.31c-.54-.48-1.04-.92-1.57-1.39-.41-.02-.86-.04-1.33-.06-.49-.45-.98-.92-1.47-1.37h-1.16c-1.77,1.7-3.43,3.29-5.04,4.83-.03.55-.05,1-.07,1.45-.96.71-1.55,1.6-1.47,2.77-.46.55-.88,1.06-1.2,1.44-.05,1.08-.09,1.97-.12,2.71-.96.96-1.78,1.77-2.64,2.64v6.82c-.48.52-.94,1.02-1.42,1.55v1.32c-.48.51-.94,1.01-1.42,1.52v4c-.5.6-.93,1.12-1.35,1.64.37,1.36-1.03,1.87-1.5,3.13v2.31c-.44.44-.76.76-1.18,1.18v2.6c-.47.55-.91,1.06-1.42,1.66v3.99c-.48.52-.94,1.02-1.42,1.55v1.32c-.48.51-.94,1.01-1.42,1.52v6.84c-.93,1.04-2.09,1.82-2.74,3.05-.08,1.35.19,2.72-.22,4.05-.33.33-.65.65-.98.98-.49,1.51.18,3.14-.49,4.63-.33.33-.65.65-1.03,1.03v2.67c-.48.53-.94,1.03-1.42,1.56v5.45c-.48.51-.94,1.01-1.42,1.54v1.26c-.5.55-.95,1.05-1.42,1.59v5.33c-.53.62-.95,1.13-1.31,1.56-.08,1.49.17,2.86-.22,4.2-.33.33-.65.65-1.06,1.06-.03.57-.16,1.25-.09,1.9.12,1.1-.69,1.59-1.35,2.3v8.18c-.48.53-.93,1.03-1.39,1.53.43.48.88.97,1.33,1.46.06.65-.22,1.41.67,1.93.53.02,1.2.06,1.87.09,1.28.05,1.31.05,1.59,1.56.08.45.18.85.63,1.12.45.03.9.05,1.4.08.47.44.97.9,1.48,1.38.9,0,1.82,0,2.74,0,.23-.37.51-.71.68-1.1s.12-.89.32-1.24c.22-.39.63-.66,1.08-1.11,0-1.7.04-3.53-.04-5.35-.01-.3-.54-.76-.89-.83-.66-.13-1.38-.04-2.07-.04-.46,0-.93-.19-1.06-.66-.04-.15.59-.65.94-.68.68-.07,1.3-.11,1.67-.74-.42-.48-.84-.96-1.25-1.42.31-.53.71-.6,1.18-.66,1.35-.17,1.46-.32,1.51-1.65.02-.67.08-1.33.11-1.9.41-.41.74-.74,1.07-1.07.46-1.42-.33-3.27,1.53-4.25v-2.69c.48-.53.93-1.03,1.42-1.58v-1.32c-.43-.47-.88-.96-1.32-1.46.91-1.01,2.05-1.8,2.83-3.19v-1.86c1.35-1.65,2.36-2.88,3.27-3.99,1.39.32,1.94-.43,2.64-1.03.64-.55,1.82,0,2.32-1.1v-1.26c.67-.67,1.32-1.32,2.01-2.01.48.44.97.88,1.46,1.33h1.33c.51-.48,1.01-.94,1.53-1.42h2.59c.63-.5,1.14-1.25,1.68-1.27,1.05-.04,1.56-.74,2.32-1.15.94-.5,2.06-.54,2.87-1.48.36-.43,1.25-.38,1.82.13.34.31.66.65.98.97.22.03.44.05.66.08.98.12,1.47.44,1.5.98.1,1.81-.21,3.64.16,5.4.86.86,1.67,1.67,2.54,2.54-.42.47-.84.95-1.3,1.48v2.71c.89.93,1.8,1.89,2.7,2.84-.41.4-.73.73-1.06,1.06-.09.19-.27.38-.27.57-.02,2.53-.02,5.06,0,7.6,0,.2.09.43.2.6.12.19.32.33.83.84.35,1.27.35,2.19.35,3.08.48.51.94,1.01,1.38,1.48.03.5.06.95.08,1.34.47.54.91,1.04,1.32,1.5-.19,1.82-.2,1.89-1.34,1.9-.52,0-1.03,0-1.17.48-.23.77.65.96.79,1.2.85,1.32-.58,2.97,1.09,3.73.48-.4.95-.78,1.4-1.15,1.41,1.41,2.72,2.71,4.06,4.05,1.34,0,2.72.02,4.1-.02.17,0,.34-.28.51-.43.14-1.26.89-2.6-.49-3.66q-1.39,1.3-1.96.73c-.04-.65-.32-1.34.08-1.66,1.35-1.11,3.04.27,3.99-1.18v-4.56c-.84-.66-1.92-1.5-2.63-2.06-.37-1.59.39-2.14.98-2.83ZM52.5,77.18c-.77.85-1.62,1.63-2.42,2.43-1.34.71-2.08-.19-2.92-1.08-.47.41-.95.81-1.49,1.28h-4.03c-.99.95-1.98,1.89-2.9,2.76h-4.13c-.75-.48-.7-1.17-.69-1.93.4-.45.85-.95,1.35-1.51v-5.42c.47-.51.94-1,1.41-1.51,0-.44,0-.9.35-1.7.58-.71.98-1.06,1.01-1.44.09-1.14.03-2.29.03-3.57.36-.43.79-.94,1.32-1.57v-3.93c.47-.53.92-1.03,1.39-1.56.02-.4.04-.85.07-1.34.44-.47.91-.97,1.38-1.47v-4.09c.47-.5.94-1,1.35-1.44v-2.94c-.79-.27-1.61-.49-2.38-.85-.43-.2-.29-.63.32-.99h2.55c1.17-.48.57-1.84,1.17-2.26,1.44-1.01,1.08-2.38,1.14-3.61.18-1,1.44-1.25,1.37-2.27-.05-.77.22-1.37.92-1.54.64-.16,1.36-.08,1.83.66v2.67c.48.51.94,1,1.42,1.51v4.09c.48.51.94,1,1.39,1.48-.03.49-.05.94-.07,1.33-.43.51-.84.98-1.24,1.45.4.4.72.72,1.08,1.08.47,1.04.16,2.19.21,3.3.05,1.15-.02,2.3.02,3.44.04,1.12-.2,2.26.17,3.34.35.35.67.67,1,.99.07.2.2.4.2.6.01,4.36,0,8.72,0,13.13-.43,1.06-1.45,1.66-2.2,2.48Z"/>
  <path class="st0" d="M440.02,19.05c-.66-.12-1.38.01-1.8-.67-.56-.91-1.63-.55-2.35-.99-.56-.33-1.02-.82-1.4-1.14-1.12,0-2.05,0-2.97,0-1.28,0-1.64.33-1.65,1.51,0,.68,0,1.35,0,1.87-.56.64-1,1.15-1.47,1.69v2.6c-1.8,1.95-1.8,2.04,0,3.99-.39.46-.8.94-1.26,1.48v4.01c-.48.51-.95,1.01-1.42,1.52v3.43c-.47,1.18-.94,1.67-1.42,2.18v2.64c-.51.58-.95,1.08-1.42,1.62v5.29c-.54.65-.96,1.16-1.3,1.58-.05,1.48.33,2.96-1.21,3.79-.11,1.14-.41,2.19-1.51,2.83v4.12c-.48.52-.94,1.02-1.42,1.54v2.69c.49,1.02,1.68.45,2.32,1.03.62.57,1.38,1.07,1.69,1.93q-1.24,1.29-.04,2.44c.32.31.68.59.96.83h3.78c1.43-1.28,2.62-2.35,3.77-3.38v-4.16c.5-.56.95-1.06,1.42-1.59v-2.56c.53-.63.95-1.14,1.32-1.58-.08-1.47.18-2.84-.22-4.18-1.56-1.68-1.59-1.88-.4-3.16.33.33.65.65.98.98.32.32.65.2.99-.37v-5.46c.96-1,1.89-1.99,2.84-2.99v-5.37c.52-.61.95-1.12,1.25-1.46.24-2.02-.15-3.85.26-5.65,1.8-.65.65-3.18,2.58-3.87,0-2.69.03-5.44-.04-8.18,0-.3-.52-.79-.86-.85Z"/>
  <path class="st0" d="M426.04,96.08c-.7-.58-1.08-1.02-1.42-1-1.08.09-1.6-.63-2.21-1.25-3.95-.26-3.95-.26-5.04.59v1.3c-.48.52-.94,1.01-1.37,1.47q-.03,2.71.53,3.22c1.61.66,3.57-.64,4.98.89.12.67-.22,1.43.72,1.95h2.68c1.28-.91,2.47-2.2,3.56-3.55-.06-.49-.11-.92-.16-1.35-.64-.64-1.28-1.28-2.27-2.27Z"/>
</svg>